<svg width="1500" height="1500" viewBox="0 0 1500 1500" fill="none" xmlns="http://www.w3.org/2000/svg">
<path d="M596.156 403.746C597.548 403.744 598.94 403.741 600.332 403.737C604.124 403.728 607.916 403.732 611.708 403.739C615.81 403.743 619.912 403.736 624.015 403.731C632.038 403.722 640.062 403.724 648.085 403.729C654.609 403.734 661.133 403.735 667.657 403.732C668.587 403.732 669.517 403.732 670.475 403.731C672.365 403.731 674.255 403.73 676.145 403.729C693.848 403.724 711.55 403.73 729.252 403.741C744.425 403.75 759.599 403.748 774.772 403.739C792.413 403.729 810.054 403.724 827.695 403.73C829.578 403.731 831.461 403.732 833.343 403.732C834.733 403.733 834.733 403.733 836.15 403.733C842.663 403.735 849.175 403.732 855.687 403.727C863.628 403.722 871.57 403.723 879.511 403.734C883.559 403.739 887.607 403.741 891.656 403.735C895.368 403.729 899.08 403.732 902.792 403.743C904.757 403.746 906.722 403.739 908.687 403.733C915.479 403.762 921.825 404.288 928.482 405.669C931.053 406.007 932.538 405.66 935 405C937.349 405.609 939.682 406.281 942 407C943.996 407.359 945.995 407.695 948 408C949.67 408.316 951.336 408.652 953 409C953.694 409.144 954.387 409.289 955.102 409.437C956.258 409.685 956.258 409.685 957.438 409.937C958.158 410.091 958.879 410.244 959.621 410.402C962.473 411.119 965.217 412.051 968 413C969.502 413.478 969.502 413.478 971.035 413.965C972.534 414.446 972.534 414.446 974.062 414.938C975.565 415.415 975.565 415.415 977.098 415.902C979.98 416.992 982.376 418.404 985 420C985.66 420 986.32 420 987 420C987.66 420.66 988.32 421.32 989 422C990.64 422.433 990.64 422.433 992.312 422.875C996.137 424.042 997.986 425.462 1001 428C1002.67 428.669 1004.33 429.335 1006 430C1014.59 434.846 1022.26 440.93 1030 447C1030.79 447.552 1031.57 448.103 1032.38 448.672C1032.91 449.11 1033.45 449.548 1034 450C1034 450.66 1034 451.32 1034 452C1034.58 452.264 1035.16 452.529 1035.76 452.801C1042.08 456.18 1047.92 462.138 1052 468C1052 468.66 1052 469.32 1052 470C1052.99 470.33 1053.98 470.66 1055 471C1056.39 472.559 1056.39 472.559 1057.69 474.438C1058.34 475.364 1058.34 475.364 1059.01 476.309C1060 478 1060 478 1060 480C1060.7 480.516 1061.4 481.031 1062.12 481.562C1069.94 488.186 1075.49 499.454 1079 509C1078.67 509.66 1078.34 510.32 1078 511C1078.99 511 1079.98 511 1081 511C1081.19 512.454 1081.19 512.454 1081.38 513.938C1081.58 514.948 1081.79 515.959 1082 517C1082.66 517.33 1083.32 517.66 1084 518C1085 520.328 1085 520.328 1086 523.25C1086.97 526.058 1087.94 528.846 1089.05 531.602C1092.53 540.401 1092.53 540.401 1091 545C1091.99 545.33 1092.98 545.66 1094 546C1094.23 547.986 1094.46 549.971 1094.68 551.957C1094.97 554.194 1094.97 554.194 1096 557C1097.3 563.999 1098.16 570.716 1097.84 577.824C1097.88 580.079 1097.88 580.079 1098.99 582.27C1100.12 585.319 1100.25 587.606 1100.25 590.849C1100.26 592.615 1100.26 592.615 1100.27 594.416C1100.26 596.35 1100.26 596.35 1100.25 598.323C1100.26 599.71 1100.26 601.097 1100.26 602.484C1100.27 606.294 1100.27 610.103 1100.26 613.913C1100.26 618.023 1100.26 622.132 1100.27 626.241C1100.28 634.29 1100.28 642.34 1100.27 650.389C1100.27 656.931 1100.27 663.472 1100.27 670.013C1100.27 670.943 1100.27 671.874 1100.27 672.832C1100.27 674.722 1100.27 676.612 1100.27 678.502C1100.28 696.231 1100.27 713.961 1100.26 731.69C1100.25 746.907 1100.25 762.125 1100.26 777.343C1100.27 795.008 1100.28 812.673 1100.27 830.338C1100.27 832.221 1100.27 834.104 1100.27 835.987C1100.27 836.914 1100.27 837.84 1100.27 838.795C1100.26 845.329 1100.27 851.864 1100.27 858.398C1100.28 866.36 1100.28 874.322 1100.27 882.283C1100.26 886.346 1100.26 890.41 1100.27 894.473C1100.27 898.191 1100.27 901.909 1100.26 905.628C1100.25 907.613 1100.26 909.598 1100.27 911.584C1100.26 912.761 1100.26 913.938 1100.25 915.151C1100.25 916.167 1100.25 917.183 1100.25 918.23C1099.98 921.171 1099.15 923.301 1098 926C1097.83 929.052 1097.83 929.052 1098 932.25C1098.09 937.855 1097.42 942.613 1096 948C1095.65 949.998 1095.32 951.998 1095 954C1094.55 956.613 1094.05 958.871 1093.05 961.328C1092.03 963.933 1091.31 966.475 1090.62 969.187C1089.4 973.783 1087.88 978.115 1086.04 982.5C1085.31 984.259 1084.61 986.032 1083.93 987.812C1083.58 988.72 1083.23 989.627 1082.88 990.562C1082.56 991.389 1082.25 992.215 1081.93 993.066C1081 995 1081 995 1079 996C1077.99 997.734 1077.99 997.734 1077 1000C1073.42 1007.59 1070.03 1014.49 1064.63 1020.97C1062.54 1023.58 1060.88 1026.37 1059.24 1029.27C1057.76 1031.34 1056.03 1032.49 1054 1034C1052.62 1035.69 1052.62 1035.69 1051.38 1037.56C1046.04 1044.9 1039.26 1051.56 1032 1057C1031.34 1057 1030.68 1057 1030 1057C1029.67 1057.99 1029.34 1058.98 1029 1060C1027.03 1061.61 1027.03 1061.61 1024.5 1063.31C1023.6 1063.92 1022.7 1064.53 1021.77 1065.16C1020.85 1065.76 1019.94 1066.37 1019 1067C1018.19 1067.57 1017.38 1068.13 1016.55 1068.72C1012.47 1071.54 1008.87 1073.75 1004 1075C1004 1075.66 1004 1076.32 1004 1077C1003.1 1077.15 1003.1 1077.15 1002.19 1077.31C999.961 1077.83 999.961 1077.83 998.625 1079.37C995.385 1082.61 991.341 1083.91 987 1085C985.639 1085.71 985.639 1085.71 984.25 1086.44C981.644 1087.69 979.636 1088.42 976.875 1089.06C973.187 1089.8 973.187 1089.8 970.75 1091.12C969 1092 969 1092 965 1092C965 1092.66 965 1093.32 965 1094C964.406 1094.11 963.811 1094.22 963.199 1094.33C957.534 1095.42 951.997 1096.75 946.445 1098.32C945.638 1098.54 944.831 1098.77 944 1099C943.323 1099.19 942.646 1099.39 941.949 1099.59C939.794 1100.04 937.887 1100.06 935.688 1100C930.725 1099.94 926.04 1100.62 921.165 1101.53C918.07 1101.99 915.174 1102.13 912.047 1102.13C910.284 1102.13 910.284 1102.13 908.486 1102.13C907.204 1102.13 905.922 1102.13 904.601 1102.13C903.218 1102.13 901.836 1102.13 900.453 1102.13C896.658 1102.14 892.864 1102.13 889.07 1102.13C884.976 1102.13 880.881 1102.13 876.787 1102.13C868.769 1102.14 860.751 1102.14 852.732 1102.14C846.216 1102.13 839.7 1102.13 833.183 1102.13C832.256 1102.13 831.329 1102.13 830.374 1102.13C828.49 1102.13 826.607 1102.13 824.723 1102.14C807.058 1102.14 789.393 1102.13 771.729 1102.13C756.569 1102.12 741.41 1102.13 726.25 1102.13C708.649 1102.14 691.048 1102.14 673.447 1102.13C671.57 1102.13 669.693 1102.13 667.817 1102.13C666.893 1102.13 665.97 1102.13 665.019 1102.13C658.51 1102.13 652.001 1102.13 645.492 1102.14C637.56 1102.14 629.629 1102.14 621.697 1102.13C617.65 1102.13 613.603 1102.13 609.555 1102.13C605.851 1102.14 602.146 1102.13 598.441 1102.13C596.466 1102.13 594.49 1102.13 592.515 1102.13C591.339 1102.13 590.164 1102.13 588.953 1102.13C587.941 1102.13 586.929 1102.13 585.886 1102.13C582.85 1101.99 579.987 1101.55 577 1101C572.86 1100.4 568.932 1099.95 564.75 1100C560.127 1100 556.357 1098.82 551.938 1097.56C547.033 1096.2 542.149 1095.28 537.117 1094.53C536.419 1094.35 535.72 1094.18 535 1094C534.67 1093.34 534.34 1092.68 534 1092C532.004 1091.65 530.003 1091.31 528 1091C526.658 1090.35 525.325 1089.68 524 1089C522.845 1088.69 521.69 1088.38 520.5 1088.06C517.203 1087.06 515.658 1086.04 513 1084C512.237 1083.86 511.474 1083.71 510.688 1083.56C506.158 1082.61 502.279 1080.28 499 1077C498.076 1076.7 497.151 1076.41 496.199 1076.1C492.832 1074.94 490.638 1073.52 487.812 1071.37C486.868 1070.66 485.923 1069.95 484.949 1069.22C483.976 1068.49 483.003 1067.76 482 1067C480.043 1065.6 478.085 1064.21 476.125 1062.81C472.404 1060.1 469.177 1057.34 466 1054C463.482 1051.74 460.947 1049.51 458.402 1047.28C456.008 1045.01 454.053 1042.58 452 1040C451.34 1039.67 450.68 1039.34 450 1039C450 1038.34 450 1037.68 450 1037C449.34 1037 448.68 1037 448 1037C443.189 1031.82 439.395 1026.16 436 1020C435.003 1019 434.002 1018 433 1017C431.922 1015.57 430.882 1014.11 429.875 1012.62C429.357 1011.87 428.839 1011.12 428.305 1010.35C426.929 1007.87 426.404 1005.79 426 1003C425.34 1003 424.68 1003 424 1003C423.67 1002.01 423.34 1001.02 423 1000C423.33 999.34 423.66 998.68 424 998C423.34 998 422.68 998 422 998C421.131 996.592 420.28 995.174 419.438 993.75C418.962 992.961 418.486 992.172 417.996 991.359C416.87 988.692 416.983 987.655 418 985C417.01 984.67 416.02 984.34 415 984C415 982.68 415 981.36 415 980C414.34 979.67 413.68 979.34 413 979C412.265 976.335 411.614 973.692 411 971C409.94 967.112 408.763 963.303 407.438 959.5C406.145 955.682 405.463 952.014 405 948C404.835 947.196 404.67 946.391 404.5 945.562C402.46 935.107 402.46 935.107 404 931C403.34 930.67 402.68 930.34 402 930C402.33 927.69 402.66 925.38 403 923C402.34 923 401.68 923 401 923C401 810.8 401 698.6 401 583C401.66 583 402.32 583 403 583C402.67 580.36 402.34 577.72 402 575C402.66 575 403.32 575 404 575C403.773 573.701 403.546 572.401 403.312 571.062C402.801 566.562 403.612 563.639 405.238 559.48C406.454 555.523 406.52 551.524 406.691 547.406C406.844 546.215 406.844 546.215 407 545C407.66 544.67 408.32 544.34 409 544C409.358 541.67 409.688 539.336 410 537C410.639 535.323 411.303 533.654 412 532C412.165 531.092 412.33 530.185 412.5 529.25C412.665 528.507 412.83 527.765 413 527C413.99 526.505 413.99 526.505 415 526C415.343 524.335 415.674 522.668 416 521C417.782 516.546 419.822 512.272 422 508C422.371 507.236 422.743 506.471 423.125 505.684C427.069 497.611 431.502 490.474 437.098 483.445C439.923 479.814 442.557 476.048 445.203 472.285C447 470 447 470 450 468C451.245 466.41 451.245 466.41 452.375 464.625C454.569 461.445 456.894 459.33 460 457C460.743 456.257 461.485 455.515 462.25 454.75C468.081 448.919 474.063 443.748 481.016 439.301C483.147 437.956 483.147 437.956 485.5 435.938C490.784 431.842 496.91 429.033 502.875 426.066C504.949 425.026 507.011 423.964 509.07 422.895C510.422 422.201 511.773 421.507 513.125 420.812C514.14 420.28 514.14 420.28 515.176 419.736C519.168 417.701 522.53 416.673 527 416C527.33 415.34 527.66 414.68 528 414C531.542 412.796 534.918 412.011 538.625 411.5C541.948 411.154 541.948 411.154 544.625 409.875C547.489 408.82 549.108 409.174 552 410C552 409.34 552 408.68 552 408C557.648 406.653 563.211 405.517 569 405C569.33 405.33 569.66 405.66 570 406C571.734 405.742 573.459 405.422 575.178 405.078C582.21 403.846 589.031 403.721 596.156 403.746ZM406 949C407 952 407 952 407 952L406 949Z" fill="#FEFEFE"/>
<path d="M737.441 502.797C738.757 502.786 738.757 502.786 740.1 502.776C742.921 502.758 745.741 502.752 748.562 502.75C749.525 502.749 750.487 502.748 751.478 502.747C771.01 502.761 789.897 503.91 808.768 509.359C811.375 510.108 813.992 510.818 816.609 511.531C854.211 521.953 888.858 540.023 917.531 566.719C919.58 568.612 921.667 570.406 923.812 572.188C935.45 582.373 945.069 594.444 954 607C954.815 608.129 954.815 608.129 955.646 609.281C971.373 631.328 982.619 655.303 990.16 681.281C990.734 683.89 990.734 683.89 992 685C992.144 686.072 992.289 687.145 992.437 688.25C992.828 691.842 992.828 691.842 993.97 694.411C995.009 697.022 995.558 699.403 996.035 702.168C996.205 703.144 996.374 704.121 996.549 705.127C996.718 706.137 996.888 707.147 997.062 708.188C997.236 709.178 997.409 710.169 997.588 711.189C999.476 722.224 1000.15 732.795 1000 744C970.11 744.189 970.11 744.189 958.562 743.5C950.253 743.031 941.947 742.827 933.626 742.768C932.235 742.756 930.844 742.739 929.453 742.717C913.227 742.465 899.022 745.037 886.937 756.5C876.445 767.621 868.778 780.929 861 794C859 793 859 793 858.362 791.107C858.18 790.278 857.998 789.449 857.811 788.595C857.6 787.656 857.39 786.717 857.173 785.749C856.842 784.211 856.842 784.211 856.504 782.641C856.153 781.058 856.153 781.058 855.794 779.443C855.042 776.047 854.302 772.648 853.562 769.25C853.068 767.004 852.572 764.758 852.076 762.512C851.129 758.22 850.184 753.928 849.241 749.635C846.746 737.264 846.746 737.264 842.879 725.293C841.889 722.71 841.051 720.088 840.209 717.453C838.323 711.574 836.297 706.251 833 701C833 700.34 833 699.68 833 699C832.422 698.711 831.845 698.423 831.25 698.125C829.863 697.431 828.487 696.713 827.133 695.957C823.462 694.31 819.934 694.35 816 695C808.492 699.533 805.801 707.399 803.687 715.625C803.487 716.388 803.287 717.152 803.081 717.938C800.3 729.111 798.415 740.502 796.411 751.834C796.194 753.055 796.194 753.055 795.972 754.299C795.7 755.832 795.431 757.365 795.166 758.899C795.042 759.598 794.918 760.298 794.79 761.019C794.685 761.621 794.581 762.223 794.473 762.843C794.073 764.666 793.565 766.464 793.033 768.253C791.965 772.126 791.271 775.972 790.687 779.939C790.514 781.079 790.514 781.079 790.337 782.243C790.088 783.88 789.841 785.517 789.597 787.155C789.21 789.744 788.817 792.332 788.423 794.92C787.59 800.404 786.763 805.89 785.937 811.375C784.977 817.753 784.013 824.131 783.043 830.508C782.656 833.062 782.274 835.618 781.892 838.174C781.656 839.728 781.42 841.283 781.183 842.837C781.078 843.552 780.972 844.267 780.864 845.003C780.114 849.886 780.114 849.886 779 851C778.711 853.906 778.551 856.812 778.379 859.727C778 863 778 863 777.091 866.087C775.761 870.624 774.973 875.233 774.16 879.887C773.816 881.814 773.471 883.742 773.127 885.67C772.595 888.673 772.064 891.677 771.534 894.68C766.926 920.732 766.926 920.732 765 926C764.34 926.33 763.68 926.66 763 927C761.068 919.281 760.213 911.598 759.437 903.688C759.189 901.191 758.938 898.695 758.684 896.199C758.576 895.104 758.468 894.01 758.357 892.882C758.084 890.14 758.084 890.14 757.488 888.084C756.745 884.913 756.665 881.703 756.5 878.461C756.417 876.979 756.333 875.497 756.25 874.016C756.124 871.687 755.999 869.359 755.875 867.03C755.754 864.778 755.627 862.526 755.5 860.273C755.465 859.574 755.429 858.876 755.393 858.155C755.22 854.454 755.22 854.454 754 851C753.804 849.085 753.664 847.164 753.551 845.242C753.477 844.015 753.403 842.788 753.327 841.524C753.248 840.156 753.17 838.788 753.092 837.419C753.007 835.983 752.921 834.547 752.835 833.111C752.602 829.194 752.374 825.277 752.147 821.36C751.907 817.233 751.662 813.107 751.417 808.981C750.952 801.125 750.492 793.269 750.033 785.413C749.417 774.874 748.795 764.336 748.173 753.798C748.022 751.229 747.87 748.66 747.718 746.091C747.669 745.253 747.62 744.416 747.569 743.553C747.235 737.901 746.904 732.249 746.573 726.597C746.054 717.731 745.53 708.865 745 700C744.956 699.257 744.911 698.514 744.866 697.749C744.599 693.299 744.33 688.85 744.057 684.4C743.934 682.377 743.812 680.354 743.691 678.331C743.29 671.859 742.774 665.438 742 659C741.874 657.257 741.764 655.512 741.684 653.766C741.642 652.867 741.6 651.969 741.556 651.043C741.517 650.122 741.478 649.2 741.437 648.25C741.395 647.291 741.353 646.332 741.309 645.343C741.011 638.223 740.879 631.126 741 624C740.34 624 739.68 624 739 624C738.9 622.929 738.8 621.857 738.696 620.753C736.588 596.592 736.588 596.592 733 572.625C732.788 571.464 732.788 571.464 732.571 570.281C731.494 565.022 729.895 557.895 726 554C721.915 553.403 721.915 553.403 718 554C713.662 558.221 711.896 562.16 710.375 567.938C710.17 568.67 709.966 569.403 709.755 570.158C707.794 577.363 706.316 584.652 705 592C704.34 592 703.68 592 703 592C702.921 593.002 702.921 593.002 702.841 594.025C702.282 600.695 701.408 607.246 700.293 613.844C700.127 614.844 699.962 615.845 699.791 616.875C699.26 620.084 698.724 623.292 698.187 626.5C697.458 630.895 696.732 635.291 696.008 639.688C695.831 640.758 695.655 641.829 695.473 642.932C693.897 652.538 692.444 662.157 691.104 671.799C690.9 673.244 690.9 673.244 690.691 674.719C690.58 675.533 690.469 676.347 690.354 677.186C690 679 690 679 689 680C688.595 682.173 688.248 684.358 687.924 686.545C687.77 687.572 687.77 687.572 687.613 688.62C687.272 690.903 686.937 693.186 686.602 695.469C686.364 697.063 686.126 698.658 685.888 700.252C685.257 704.474 684.631 708.696 684.007 712.918C683.016 719.618 682.019 726.318 681.02 733.017C680.675 735.334 680.333 737.652 679.991 739.97C678.89 747.401 677.73 754.82 676.458 762.225C676.342 762.917 676.226 763.61 676.107 764.324C675.398 768.368 674.361 772.131 673 776C672.488 778.209 672.01 780.426 671.562 782.648C671.307 783.901 671.052 785.154 670.789 786.445C670.526 787.755 670.263 789.065 670 790.375C666.846 805.988 666.846 805.988 665 813C664.34 813 663.68 813 663 813C659.07 801.701 656.555 790.46 654.632 778.66C654.183 775.907 653.715 773.158 653.244 770.408C652.947 768.636 652.651 766.863 652.355 765.09C652.218 764.279 652.081 763.469 651.939 762.634C651.195 758.023 650.865 753.671 651 749C650.34 749 649.68 749 649 749C648.767 747.513 648.767 747.513 648.529 745.997C644.962 709.264 644.962 709.264 627.953 678.289C624.439 675.97 621.142 675.514 617 676C608.256 679.468 602.476 687.477 598.715 695.867C597.308 699.169 596.047 702.514 594.801 705.879C582.934 737.859 582.934 737.859 576 743C573.507 743.28 571.266 743.379 568.775 743.341C568.043 743.341 567.311 743.341 566.557 743.342C564.138 743.34 561.72 743.316 559.301 743.293C557.624 743.287 555.946 743.283 554.269 743.28C549.855 743.269 545.441 743.239 541.027 743.206C536.522 743.175 532.018 743.162 527.514 743.146C518.676 743.114 509.838 743.063 501 743C500.943 735.474 501.227 728.217 502.187 720.75C502.318 719.722 502.449 718.694 502.584 717.635C505.275 697.66 509.991 678.503 518 660C518.67 658.381 519.338 656.761 520.004 655.141C529.318 632.666 541.55 612.774 557 594C557.723 593.12 557.723 593.12 558.461 592.222C568.639 579.922 579.425 568.873 592 559C593.069 558.13 594.137 557.259 595.203 556.387C620.259 536.052 648.804 521.259 679.865 512.616C682.694 511.8 685.465 510.829 688.25 509.875C703.789 505.039 721.177 502.884 737.441 502.797Z" fill="#F45091"/>
<path d="M721 590C723.457 593.685 723.491 596.75 723.742 601.035C723.797 601.861 723.852 602.686 723.909 603.537C724.091 606.304 724.261 609.072 724.43 611.84C724.556 613.81 724.683 615.78 724.811 617.749C725.223 624.165 725.614 630.582 726 637C726.065 638.08 726.13 639.161 726.197 640.274C727.345 659.384 728.439 678.498 729.526 697.612C729.85 703.31 730.178 709.008 730.509 714.706C730.632 716.85 730.754 718.994 730.875 721.138C731.041 724.09 731.211 727.042 731.383 729.994C731.431 730.868 731.479 731.742 731.528 732.642C731.725 735.953 731.946 738.838 733 742C733.24 744.895 733.431 747.776 733.585 750.676C733.636 751.568 733.686 752.46 733.739 753.379C733.849 755.327 733.958 757.276 734.065 759.225C734.237 762.355 734.414 765.485 734.592 768.614C734.848 773.085 735.101 777.556 735.354 782.028C738.043 829.576 738.043 829.576 741.625 877.062C741.717 878.175 741.809 879.288 741.904 880.435C742.931 892.736 744.313 904.958 746.023 917.184C746.188 918.373 746.353 919.562 746.523 920.787C746.685 921.902 746.846 923.017 747.013 924.166C747.155 925.149 747.297 926.132 747.443 927.144C747.95 930.08 747.95 930.08 749.054 933.122C750.174 936.528 750.142 939.439 750 943C750.66 943 751.32 943 752 943C752.433 943.928 752.866 944.856 753.312 945.812C755.081 949.478 755.081 949.478 758 952C762.669 952.602 764.81 952.83 768.688 950.125C779.543 935.455 782.256 915.473 786 898C786.196 897.105 786.391 896.21 786.593 895.288C790.282 878.302 792.96 861.168 795.589 843.992C795.734 843.056 795.879 842.119 796.028 841.155C796.301 839.392 796.569 837.628 796.834 835.863C797.378 832.352 797.99 829.034 798.989 825.617C800.364 820.699 801.025 815.751 801.734 810.699C802.062 808.434 802.389 806.169 802.716 803.904C802.885 802.724 803.054 801.545 803.228 800.33C805.737 782.831 808.305 765.347 811.375 747.938C811.496 747.241 811.617 746.544 811.742 745.826C813.726 734.449 813.726 734.449 816 729C816.386 727.679 816.744 726.349 817.07 725.012C817.331 723.953 817.331 723.953 817.598 722.873C817.859 721.791 817.859 721.791 818.125 720.688C818.307 719.947 818.489 719.206 818.676 718.443C819.12 716.63 819.561 714.815 820 713C820.99 713 821.98 713 823 713C827.797 723.944 830.271 735.112 832.75 746.75C833.345 749.506 833.943 752.262 834.544 755.017C834.915 756.717 835.281 758.419 835.643 760.122C836.174 763.869 836.174 763.869 838 767C838.124 768.176 838.248 769.351 838.375 770.562C838.79 774.134 839.691 777.196 841.059 780.539C842.056 783.146 842.872 785.79 843.693 788.456C846.308 796.816 849.302 805.09 857 810C861.011 810.52 863.342 810.315 867 808.562C874.012 802.573 878.458 794.73 883.231 786.956C886.751 781.276 890.575 776.02 895 771C895.572 770.345 896.145 769.69 896.734 769.016C901.588 763.806 907.24 760.253 914 758C916.754 757.909 919.482 757.874 922.235 757.886C923.494 757.886 923.494 757.886 924.778 757.886C927.554 757.887 930.33 757.895 933.105 757.902C935.029 757.904 936.953 757.906 938.877 757.907C943.942 757.91 949.007 757.92 954.072 757.931C959.24 757.942 964.408 757.946 969.576 757.951C979.717 757.962 989.859 757.979 1000 758C1000.02 760.847 1000.04 763.694 1000.05 766.541C1000.06 767.338 1000.06 768.135 1000.07 768.956C1000.09 776.137 999.3 782.973 998.125 790.062C997.951 791.194 997.777 792.325 997.598 793.49C994.819 811.181 994.819 811.181 993 813C992.807 814.865 992.617 816.732 992.477 818.602C991.95 821.253 990.943 823.52 989.843 825.979C988.578 829.012 987.639 832.134 986.655 835.268C983.585 844.995 979.936 853.971 975.098 862.938C973.916 865.159 972.784 867.4 971.656 869.648C966.228 880.383 960.164 890.338 953 900C952.55 900.607 952.1 901.214 951.637 901.839C944.97 910.739 937.718 919.002 930 927C929.433 927.588 928.867 928.177 928.283 928.783C920.92 936.391 913.43 943.563 905 950C904.469 950.413 903.938 950.826 903.391 951.251C886.006 964.718 866.814 975.932 846.328 983.957C843.87 984.892 843.87 984.892 842 987C837.457 988.683 832.778 989.966 828.125 991.312C827.095 991.613 827.095 991.613 826.044 991.92C805.93 997.746 785.076 1002.05 764.078 1002.24C763.148 1002.25 762.218 1002.26 761.26 1002.27C722.74 1002.59 684.18 999.19 649 982C647.835 981.437 646.669 980.873 645.469 980.293C623.197 969.413 603.665 956.44 584.72 940.435C583.242 939.202 581.731 938.007 580.215 936.82C578.148 935.122 576.514 933.43 574.812 931.375C572.04 928.12 569.123 925.11 566.062 922.125C543.891 900.087 526.864 870.373 516.168 841.152C515.506 839.365 514.824 837.583 514.083 835.826C511.37 829.358 509.526 822.888 507.937 816.062C507.552 814.431 507.552 814.431 507.159 812.767C504.959 803.236 503.282 793.694 502 784C501.869 783.055 501.737 782.11 501.602 781.137C500.999 776.159 500.961 771.212 500.98 766.203C500.982 765.509 500.983 764.815 500.985 764.1C500.988 762.4 500.994 760.7 501 759C501.934 758.994 502.869 758.988 503.831 758.982C512.659 758.925 521.486 758.852 530.313 758.764C534.851 758.72 539.388 758.68 543.926 758.654C548.309 758.627 552.692 758.587 557.075 758.537C558.743 758.52 560.411 758.509 562.079 758.502C564.425 758.493 566.77 758.465 569.115 758.432C569.797 758.434 570.479 758.435 571.182 758.437C577.379 758.317 583.966 756.735 588.5 752.25C595.916 744.258 600.217 733.06 604 723C605.638 718.988 607.321 714.995 609 711C609.516 709.755 610.031 708.51 610.547 707.266C611.073 706.01 611.599 704.755 612.125 703.5C612.602 702.355 613.079 701.211 613.57 700.031C614.828 697.364 616.128 695.26 618 693C621 694 621 694 621.992 695.73C625.305 704.952 627.314 714.489 629.364 724.054C629.79 726.027 630.228 727.998 630.677 729.965C633.294 741.641 635.136 753.445 637.062 765.25C637.591 768.477 638.121 771.704 638.652 774.931C638.98 776.923 639.306 778.915 639.631 780.908C640.501 786.208 641.477 791.463 642.627 796.71C643.029 799.176 643.062 801.506 643 804C643.66 804 644.32 804 645 804C645.563 805.81 645.563 805.81 646.137 807.656C646.653 809.271 647.17 810.886 647.688 812.5C647.932 813.291 648.176 814.083 648.428 814.898C650.639 821.727 653.392 827.732 658.875 832.5C662.739 834.355 664.772 834.831 669 834C686.042 819.741 686.999 786.137 690.352 765.556C690.54 764.408 690.728 763.261 690.922 762.078C691.083 761.072 691.243 760.065 691.409 759.028C692 756 692 756 692.977 752.659C694.118 748.579 694.813 744.555 695.445 740.371C695.576 739.528 695.707 738.684 695.842 737.816C696.274 735.024 696.7 732.231 697.125 729.438C697.427 727.475 697.729 725.513 698.031 723.55C701.794 699.05 705.398 674.525 709 650C709.66 650 710.32 650 711 650C711.038 649.273 711.076 648.545 711.115 647.796C711.738 638.007 713.277 628.47 714.938 618.812C715.206 617.222 715.473 615.632 715.74 614.041C719.553 591.447 719.553 591.447 721 590Z" fill="#F45091"/>
<path d="M724 552.371C727.164 553.366 728.216 555.27 730 558C737.453 577.699 739.864 603.083 739 624C739.66 624 740.32 624 741 624C741.05 624.935 741.1 625.869 741.152 626.832C741.347 630.433 741.545 634.034 741.745 637.635C741.829 639.169 741.913 640.702 741.995 642.236C742.431 650.373 742.936 658.496 743.658 666.614C745.108 683 746.041 699.414 746.987 715.835C747.229 720.012 747.474 724.188 747.719 728.365C748.18 736.251 748.639 744.138 749.096 752.024C749.766 763.582 750.441 775.14 751.116 786.699C751.166 787.553 751.216 788.407 751.267 789.287C751.367 790.992 751.466 792.698 751.566 794.403C751.854 799.341 752.142 804.279 752.428 809.218C752.607 812.299 752.786 815.381 752.966 818.463C753.048 819.874 753.13 821.285 753.211 822.696C753.468 827.131 753.732 831.566 754 836C754.04 836.688 754.079 837.376 754.12 838.085C754.241 840.169 754.367 842.252 754.494 844.335C754.567 845.566 754.64 846.796 754.716 848.064C754.816 850.931 754.816 850.931 756 853C756.202 855.292 756.346 857.589 756.465 859.887C756.544 861.316 756.622 862.745 756.701 864.174C756.819 866.409 756.935 868.644 757.05 870.879C757.576 881.022 758.563 890.94 760 901C760.279 903.226 760.551 905.452 760.816 907.68C760.941 908.71 761.065 909.74 761.193 910.801C761.446 912.905 761.696 915.009 761.943 917.113C762.128 918.631 762.128 918.631 762.316 920.18C762.478 921.537 762.478 921.537 762.643 922.921C762.791 924.984 762.791 924.984 764 926C767.994 909.139 771.291 892.263 774.083 875.167C774.204 874.43 774.325 873.694 774.45 872.936C774.781 870.924 775.106 868.911 775.431 866.898C776 864 776 864 777 863C777.289 860.094 777.449 857.188 777.621 854.273C778 851 778 851 778.949 847.745C779.975 844.088 780.631 840.557 781.189 836.802C781.343 835.779 781.343 835.779 781.501 834.734C781.721 833.264 781.94 831.794 782.157 830.323C782.502 827.983 782.853 825.643 783.206 823.304C784.081 817.491 784.947 811.676 785.811 805.861C786.543 800.946 787.278 796.032 788.019 791.118C788.362 788.836 788.698 786.554 789.034 784.271C790.164 776.714 791.525 769.274 793.32 761.841C794.23 758.042 794.97 754.222 795.684 750.383C795.975 748.853 796.266 747.323 796.557 745.793C796.997 743.462 797.437 741.13 797.872 738.798C804.705 702.336 804.705 702.336 814.016 695.074C817.716 693.071 820.952 693.126 825 694C831.109 695.87 833.761 699.751 836.688 705.25C840.175 712.531 842.332 720.185 844.412 727.959C844.992 729.973 845.681 731.917 846.395 733.887C848.938 741.395 850.314 749.254 851.938 757C852.611 760.188 853.287 763.375 853.965 766.562C854.13 767.341 854.295 768.119 854.465 768.921C856.187 776.976 858.078 784.99 860 793C863.119 789.184 865.679 785.267 868.125 781C877.661 764.794 889.27 748.753 908.198 743.375C915.244 741.762 922.174 741.698 929.375 741.75C930.024 741.752 930.673 741.754 931.341 741.755C954.236 741.826 977.131 743.013 1000 744C1000.03 746.312 1000.05 748.625 1000.06 750.938C1000.07 752.225 1000.09 753.513 1000.1 754.84C1000 758 1000 758 999 759C996.4 759.074 993.826 759.083 991.227 759.05C990.005 759.041 990.004 759.041 988.758 759.031C986.981 759.017 985.204 759.001 983.428 758.983C980.611 758.957 977.794 758.939 974.977 758.924C966.964 758.881 958.952 758.834 950.94 758.753C946.043 758.704 941.147 758.676 936.25 758.659C934.388 758.65 932.525 758.632 930.663 758.608C916.692 758.426 907.967 759.439 897.469 769.402C890.341 776.902 885.037 785.479 879.673 794.257C871.079 808.124 871.079 808.124 864 811C860.683 811.501 858.247 811.64 855.203 810.078C845.713 802.94 842.946 790.292 839.981 779.395C839.351 776.19 839.351 776.19 838 775C837.775 773.102 837.553 771.204 837.379 769.301C837.05 766.905 837.05 766.905 836.087 764.343C834.894 760.674 834.039 756.981 833.231 753.215C832.896 751.698 832.56 750.182 832.225 748.666C831.707 746.313 831.192 743.96 830.685 741.605C828.539 731.669 826.011 722.377 822 713C819.595 716.608 818.906 720.147 818 724.312C817.669 725.809 817.336 727.305 817 728.801C816.856 729.462 816.711 730.124 816.563 730.806C816 733 816 733 815.033 735.771C814.058 738.818 813.432 741.7 812.919 744.852C812.731 745.986 812.544 747.12 812.351 748.288C812.058 750.116 812.058 750.116 811.758 751.98C811.548 753.262 811.339 754.543 811.123 755.864C810.677 758.586 810.236 761.308 809.796 764.031C809.248 767.434 808.693 770.835 808.136 774.236C805.734 788.91 803.406 803.59 801.337 818.315C800.624 823.288 799.79 828.109 798.496 832.961C797.451 837.257 796.847 841.643 796.16 846.008C795.993 847.051 795.825 848.094 795.652 849.169C794.941 853.594 794.238 858.021 793.534 862.448C789.736 886.296 789.736 886.296 787 898C786.699 899.314 786.399 900.628 786.099 901.942C785.294 905.446 784.468 908.945 783.63 912.441C783.293 913.856 782.96 915.272 782.63 916.689C775.683 946.545 775.683 946.545 766 953C760.952 953.745 760.952 953.745 758 953C755.474 951.011 753.582 948.799 752 946C752 945.01 752 944.02 752 943C751.34 943 750.68 943 750 943C749.876 941.969 749.753 940.938 749.625 939.875C749.13 936.119 749.13 936.119 748.023 933.122C747.034 930.105 746.467 927.304 746.013 924.166C745.851 923.051 745.689 921.936 745.523 920.787C745.358 919.598 745.193 918.409 745.024 917.184C744.849 915.935 744.674 914.687 744.494 913.4C742.843 901.314 741.63 889.218 740.625 877.062C740.476 875.315 740.476 875.315 740.325 873.531C737.66 841.926 735.948 810.248 734.159 778.583C733.911 774.199 733.661 769.816 733.411 765.433C733.237 762.366 733.069 759.299 732.9 756.232C732.796 754.38 732.69 752.528 732.585 750.676C732.54 749.835 732.496 748.994 732.45 748.127C732.262 744.886 732.032 742.095 731 739C730.75 735.995 730.548 733.004 730.383 729.994C730.303 728.607 730.303 728.607 730.22 727.192C730.042 724.109 729.869 721.025 729.695 717.941C729.57 715.764 729.444 713.587 729.318 711.41C728.983 705.632 728.653 699.854 728.325 694.075C726.074 654.383 726.074 654.383 723.563 614.706C723.433 612.767 723.305 610.828 723.179 608.889C723.005 606.238 722.826 603.587 722.644 600.937C722.594 600.155 722.543 599.373 722.491 598.568C722.273 594.656 722.273 594.656 721 591C715.56 620.428 715.56 620.428 711 650C710.34 650 709.68 650 709 650C708.956 650.743 708.911 651.487 708.866 652.252C708.24 661.523 706.99 670.646 705.602 679.824C705.363 681.422 705.125 683.019 704.888 684.616C704.391 687.947 703.892 691.278 703.39 694.608C702.755 698.821 702.125 703.036 701.497 707.25C700.888 711.338 700.276 715.425 699.664 719.512C699.552 720.263 699.44 721.015 699.324 721.79C698.083 730.086 696.803 738.376 695.459 746.656C695.343 747.388 695.227 748.12 695.107 748.875C694.368 753.362 693.296 757.633 692 762C691.705 763.343 691.432 764.691 691.194 766.045C691.067 766.757 690.94 767.469 690.809 768.202C690.679 768.95 690.548 769.698 690.414 770.469C690.12 772.109 689.826 773.75 689.531 775.391C689.079 777.933 688.63 780.475 688.183 783.018C680.562 826.242 680.562 826.242 669 835C665.396 835.837 663.52 835.721 660.18 834.137C650.729 828.184 647.838 817.18 645 807C645 806.01 645 805.02 645 804C644.34 804 643.68 804 643 804C641.93 798.335 640.868 792.668 639.813 787C639.575 785.724 639.575 785.724 639.333 784.423C636.843 771.006 634.585 757.569 632.599 744.068C631.725 738.222 630.739 732.661 629 727C628.389 724.378 627.821 721.748 627.249 719.118C625.374 710.5 623.483 702.133 620 694C619.34 694 618.68 694 618 694C613.736 702.086 610.091 709.955 607.238 718.648C606.038 721.898 604.627 724.877 603.046 727.952C602.025 729.951 601.059 731.968 600.106 734C595.434 743.816 590.826 752.541 581 758C577.264 759.289 573.473 759.134 569.569 759.114C568.828 759.114 568.086 759.114 567.321 759.114C564.876 759.113 562.43 759.105 559.984 759.098C558.286 759.096 556.588 759.094 554.89 759.093C550.425 759.09 545.96 759.08 541.495 759.069C536.937 759.058 532.378 759.054 527.82 759.049C518.88 759.038 509.94 759.021 501 759C501 762.3 501 765.6 501 769C500.67 769 500.34 769 500 769C499.174 762.86 498.932 756.81 498.969 750.625C498.971 749.889 498.973 749.153 498.976 748.395C498.981 746.596 498.99 744.798 499 743C500.427 743.011 500.427 743.011 501.883 743.023C510.858 743.087 519.832 743.104 528.808 743.075C533.422 743.062 538.035 743.065 542.649 743.106C547.105 743.145 551.558 743.141 556.013 743.106C557.71 743.1 559.408 743.111 561.106 743.137C570.317 743.614 570.317 743.614 578.353 740.02C579.909 737.721 580.994 735.58 582 733C582.534 732.087 583.067 731.175 583.617 730.234C586.874 723.802 589.48 717.25 592 710.5C602.281 683.1 602.281 683.1 614.012 676.238C618.429 674.408 621.509 674.335 626 676C641.383 686.631 642.999 708.32 646.203 725.289C646.577 727.338 646.947 729.387 647.313 731.438C647.484 732.39 647.656 733.342 647.832 734.323C648.684 739.293 649.187 743.958 649 749C649.66 749 650.32 749 651 749C651.186 750.203 651.372 751.406 651.563 752.646C652.271 757.208 652.992 761.768 653.716 766.328C654.025 768.283 654.33 770.239 654.632 772.195C656.48 784.155 658.766 795.79 662.04 807.446C663 811 663 811 663 813C663.66 813 664.32 813 665 813C665.106 811.975 665.211 810.95 665.32 809.895C666.131 803.425 667.544 797.066 668.875 790.688C669.26 788.805 669.26 788.805 669.652 786.885C669.909 785.648 670.165 784.411 670.43 783.137C670.659 782.03 670.888 780.924 671.125 779.784C671.808 776.829 672.587 773.97 673.434 771.061C675.442 763.776 676.506 756.347 677.629 748.887C677.866 747.344 678.104 745.801 678.342 744.259C678.963 740.223 679.577 736.185 680.189 732.148C680.808 728.075 681.435 724.003 682.061 719.932C682.981 713.932 683.9 707.933 684.811 701.932C684.912 701.266 685.014 700.6 685.118 699.913C685.623 696.577 686.109 693.24 686.564 689.896C686.739 688.621 686.914 687.345 687.094 686.031C687.245 684.892 687.397 683.753 687.553 682.58C688 680 688 680 689 679C689.333 677.313 689.608 675.615 689.86 673.915C690.024 672.824 690.188 671.733 690.357 670.609C690.621 668.813 690.621 668.813 690.891 666.98C691.077 665.739 691.264 664.497 691.456 663.218C692.058 659.208 692.655 655.198 693.25 651.188C696.19 631.392 699.363 611.678 703 592C703.66 592 704.32 592 705 592C705.062 590.742 705.124 589.484 705.188 588.188C705.728 582.731 706.996 577.542 708.375 572.25C708.584 571.434 708.793 570.619 709.009 569.778C711.378 560.938 713.799 552.71 724 552.371Z" fill="#FBF6F8"/>
<path d="M862.848 580.628C863.579 580.631 864.309 580.634 865.063 580.637C866.257 580.638 866.257 580.638 867.477 580.639C868.726 580.663 868.726 580.663 870 580.687C870.833 580.684 871.665 580.681 872.523 580.678C878.733 580.733 878.733 580.733 881 583C881.227 584.879 881.227 584.879 881.195 587.133C881.189 587.938 881.182 588.744 881.176 589.574C881.159 590.416 881.142 591.258 881.125 592.125C881.116 592.974 881.107 593.824 881.098 594.699C881.074 596.8 881.038 598.9 881 601C882.276 600.977 883.552 600.954 884.867 600.93C886.536 600.911 888.206 600.893 889.875 600.875C890.717 600.858 891.559 600.841 892.426 600.824C893.634 600.815 893.634 600.815 894.867 600.805C895.611 600.794 896.354 600.784 897.121 600.773C899 601 899 601 901 603C901.199 605.873 901.278 608.629 901.25 611.5C901.262 612.678 901.262 612.678 901.273 613.879C901.253 619.747 901.253 619.747 899 622C897.121 622.227 897.121 622.227 894.867 622.195C894.062 622.189 893.256 622.182 892.426 622.176C891.163 622.151 891.163 622.151 889.875 622.125C888.601 622.111 888.601 622.111 887.301 622.098C885.2 622.074 883.1 622.038 881 622C881.023 623.276 881.046 624.552 881.07 625.867C881.089 627.536 881.107 629.206 881.125 630.875C881.142 631.717 881.159 632.559 881.176 633.426C881.185 634.634 881.185 634.634 881.195 635.867C881.211 636.983 881.211 636.983 881.227 638.121C881 640 881 640 879 642C876.02 642.443 873.009 642.324 870 642.312C869.167 642.329 868.335 642.345 867.477 642.361C866.68 642.362 865.883 642.363 865.063 642.363C864.332 642.366 863.601 642.369 862.848 642.372C861 642 861 642 859 639C858.858 636.233 858.812 633.573 858.875 630.812C858.884 630.063 858.893 629.313 858.902 628.541C858.926 626.694 858.962 624.847 859 623C857.796 623.035 856.592 623.07 855.352 623.105C853.776 623.134 852.201 623.161 850.625 623.188C849.831 623.213 849.037 623.238 848.219 623.264C846.144 623.29 844.069 623.155 842 623C839.434 619.151 839.705 615.957 839.75 611.5C839.742 610.728 839.735 609.956 839.727 609.16C839.74 605.264 839.793 603.31 842 600C844.951 599.779 847.684 599.719 850.625 599.812C851.828 599.833 851.828 599.833 853.055 599.854C855.037 599.889 857.018 599.943 859 600C858.977 598.88 858.954 597.76 858.93 596.605C858.911 595.133 858.893 593.66 858.875 592.188C858.858 591.45 858.842 590.712 858.824 589.951C858.747 581.454 858.747 581.454 862.848 580.628Z" fill="#FEFAFB"/>
<path d="M1090 961C1092 964 1092 964 1091.68 966.348C1086.43 984.044 1086.43 984.044 1082 987C1082.75 982.263 1084.37 977.925 1086 973.438C1086.54 971.937 1087.09 970.436 1087.62 968.934C1087.98 967.944 1087.98 967.944 1088.35 966.935C1089.01 964.975 1089.53 963.012 1090 961Z" fill="#F4F4F4"/>
<path d="M721 590C723.491 593.737 723.207 595.745 723.125 600.188C723.107 601.46 723.089 602.732 723.07 604.043C723.036 605.507 723.036 605.507 723 607C722.67 607 722.34 607 722 607C721.67 603.7 721.34 600.4 721 597C720.34 597.99 719.68 598.98 719 600C719.14 598.52 719.288 597.041 719.438 595.562C719.519 594.739 719.6 593.915 719.684 593.066C720 591 720 591 721 590Z" fill="#FD7AAE"/>
<path d="M975 1089C977 1090 977 1090 977 1090L975 1089Z" fill="white"/>
<path d="M524 1089C526 1090 526 1090 526 1090L524 1089Z" fill="white"/>
</svg>
