<svg width="1500" height="1500" viewBox="0 0 1500 1500" fill="none" xmlns="http://www.w3.org/2000/svg">
<path d="M285.29 573.866C285.978 573.864 286.666 573.862 287.375 573.859C289.655 573.853 291.935 573.854 294.216 573.855C295.861 573.852 297.506 573.848 299.151 573.845C303.604 573.836 308.056 573.833 312.509 573.833C315.297 573.832 318.084 573.83 320.872 573.827C330.612 573.818 340.353 573.814 350.094 573.815C359.147 573.815 368.201 573.805 377.254 573.789C385.048 573.776 392.842 573.771 400.636 573.771C405.281 573.771 409.926 573.769 414.572 573.758C418.946 573.748 423.32 573.748 427.694 573.755C429.29 573.757 430.886 573.754 432.482 573.748C443.583 573.709 454.106 574.788 465 577C465 577.66 465 578.32 465 579C465.577 578.794 466.155 578.587 466.75 578.375C469.544 577.909 470.587 578.632 473 580C473.66 580 474.32 580 475 580C475 580.66 475 581.32 475 582C476.485 581.505 476.485 581.505 478 581C478 581.66 478 582.32 478 583C478.907 583.124 479.815 583.247 480.75 583.375C483.59 583.921 485.526 584.573 488 586C488 586.66 488 587.32 488 588C489.176 588.217 489.176 588.217 490.375 588.437C493 589 493 589 495 590C495 590.66 495 591.32 495 592C496.65 592.66 498.3 593.32 500 594C500 594.66 500 595.32 500 596C500.66 596 501.32 596 502 596C502 596.66 502 597.32 502 598C502.572 598.085 503.145 598.17 503.734 598.258C506.656 599.215 508.097 600.698 510.25 602.875C511.31 603.923 511.31 603.923 512.391 604.992C514 607 514 607 514 610C514.66 610 515.32 610 516 610C516 610.66 516 611.32 516 612C516.99 612.33 517.98 612.66 519 613C519.372 614.323 519.706 615.657 520 617C520.66 617.33 521.32 617.66 522 618C524.166 621.197 525.902 624.643 527.687 628.062C528.124 628.899 528.561 629.736 529.012 630.598C530 633 530 633 530 637C530.66 637.33 531.32 637.66 532 638C537.156 651.213 537.147 664.584 537.129 678.526C537.131 680.299 537.133 682.072 537.135 683.845C537.139 688.641 537.137 693.436 537.134 698.231C537.132 703.258 537.134 708.285 537.136 713.312C537.137 721.75 537.135 730.188 537.13 738.626C537.125 748.374 537.127 758.122 537.132 767.87C537.137 776.251 537.137 784.632 537.135 793.012C537.133 798.013 537.133 803.014 537.136 808.014C537.139 812.714 537.137 817.414 537.131 822.114C537.13 823.837 537.13 825.559 537.133 827.282C537.135 829.637 537.132 831.992 537.127 834.347C537.127 835.664 537.126 836.981 537.126 838.337C536.963 843.079 536.503 847.491 535 852C534.34 852 533.68 852 533 852C533.206 852.557 533.412 853.114 533.625 853.688C534.114 856.702 533.379 858.315 532 861C531.34 861.33 530.68 861.66 530 862C529.876 863.031 529.752 864.062 529.625 865.125C529.001 868.994 528.063 871.05 526.055 874.289C524.525 876.771 523.277 879.382 522 882C521.34 882 520.68 882 520 882C520 882.66 520 883.32 520 884C519.34 884 518.68 884 518 884C517.938 884.722 517.876 885.444 517.812 886.188C516.131 892.008 510.166 895.639 505.672 899.449C503.897 900.914 503.897 900.914 503 903C502.01 903 501.02 903 500 903C499.67 903.99 499.34 904.98 499 906C495.937 907.188 495.937 907.188 493 908C493 908.66 493 909.32 493 910C492.01 910 491.02 910 490 910C490 910.66 490 911.32 490 912C486.385 913.849 482.789 915.543 479 917C475.454 918.398 475.454 918.398 472 920C471.01 919.67 470.02 919.34 469 919C469 919.66 469 920.32 469 921C467.907 921.144 466.814 921.289 465.687 921.438C462.069 921.883 462.069 921.883 459 923C449.401 925.174 439.919 925.28 430.143 925.243C428.478 925.244 426.813 925.246 425.147 925.249C420.66 925.253 416.173 925.246 411.686 925.236C406.975 925.227 402.265 925.229 397.554 925.229C389.652 925.228 381.75 925.219 373.847 925.206C364.721 925.19 355.595 925.185 346.469 925.186C336.73 925.186 326.991 925.179 317.252 925.17C314.453 925.168 311.655 925.167 308.857 925.167C304.458 925.166 300.059 925.16 295.66 925.15C294.049 925.147 292.438 925.146 290.827 925.146C288.623 925.147 286.419 925.141 284.215 925.134C282.983 925.132 281.752 925.13 280.483 925.129C275.535 924.946 270.781 924.27 266 923C264.376 922.681 262.751 922.369 261.125 922.062C257.296 921.309 253.67 920.352 250 919C250 918.34 250 917.68 250 917C249.01 917.33 248.02 917.66 247 918C244.232 916.759 241.646 915.465 239 914C238.19 913.555 237.381 913.111 236.547 912.652C234.989 911.791 233.434 910.924 231.883 910.051C230.605 909.337 229.309 908.655 228 908C228 907.34 228 906.68 228 906C226.979 905.691 226.979 905.691 225.937 905.375C222.084 903.571 218.922 901.099 216 898C216 897.34 216 896.68 216 896C215.34 896 214.68 896 214 896C213.34 895.34 212.68 894.68 212 894C212 893.01 212 892.02 212 891C211.381 890.752 210.762 890.505 210.125 890.25C207.575 888.75 207.238 887.63 206 885C205.34 884.34 204.68 883.68 204 883C202.038 881.038 200.994 879.569 200 877C200 876.01 200 875.02 200 874C199.34 874 198.68 874 198 874C197.303 872.379 196.618 870.753 195.937 869.125C195.363 867.768 195.363 867.768 194.777 866.383C194 864 194 864 195 862C194.34 862 193.68 862 193 862C190.66 855.482 189.319 848.784 188 842C187.829 841.277 187.657 840.554 187.481 839.81C186.902 836.431 186.871 833.225 186.866 829.795C186.864 829.081 186.862 828.366 186.859 827.63C186.853 825.241 186.854 822.852 186.855 820.463C186.852 818.748 186.848 817.033 186.845 815.318C186.836 810.663 186.833 806.008 186.833 801.353C186.832 798.444 186.83 795.536 186.827 792.627C186.818 782.48 186.814 772.332 186.815 762.184C186.815 752.726 186.805 743.268 186.789 733.809C186.776 725.687 186.77 717.564 186.771 709.442C186.771 704.592 186.769 699.741 186.758 694.891C186.748 690.33 186.748 685.769 186.755 681.207C186.757 679.534 186.754 677.862 186.748 676.189C186.74 673.903 186.745 671.617 186.753 669.332C186.752 668.053 186.752 666.775 186.751 665.457C187.002 661.973 187.833 659.272 189 656C188.969 654.36 188.969 654.36 188.937 652.687C189.017 648.023 190.381 644.327 192 640C192.33 639.01 192.66 638.02 193 637C193.66 637 194.32 637 195 637C194.505 635.515 194.505 635.515 194 634C195.953 629.476 198.549 625.27 201 621C201.68 619.674 202.355 618.344 203 617C203.66 617 204.32 617 205 617C205.294 615.728 205.294 615.728 205.594 614.43C207.416 609.985 210.074 607.41 213.5 604.125C214.094 603.532 214.688 602.939 215.301 602.328C219.719 598 219.719 598 222 598C222.495 596.515 222.495 596.515 223 595C227.333 592 227.333 592 230 592C230.33 591.34 230.66 590.68 231 590C234.217 587.225 237.789 585.534 241.625 583.75C242.772 583.209 243.92 582.667 245.102 582.109C246.058 581.743 247.015 581.377 248 581C248.66 581.33 249.32 581.66 250 582C250.33 581.34 250.66 580.68 251 580C256.359 577.786 256.359 577.786 260 579C260 578.34 260 577.68 260 577C260.957 576.909 260.957 576.909 261.934 576.816C262.76 576.733 263.586 576.649 264.437 576.562C265.261 576.481 266.085 576.4 266.934 576.316C268.987 576.211 268.987 576.211 270 575C275.135 574.211 280.088 573.873 285.29 573.866Z" fill="#FEFEFE"/>
<path d="M437.339 648.869C459.638 666.113 474.817 688.051 483 715C483.318 715.985 483.318 715.985 483.642 716.99C486.968 727.585 487.389 738.166 487.438 749.188C487.447 750.194 487.447 750.194 487.457 751.221C487.537 764.867 485.207 777.586 480.813 790.5C480.509 791.392 480.206 792.283 479.893 793.202C468.691 825.035 444.503 848.81 414.664 863.66C398.32 871.109 381.551 874.233 363.688 874.25C362.968 874.251 362.248 874.252 361.507 874.253C350.713 874.243 340.495 873.736 330 871C328.899 870.733 327.798 870.466 326.664 870.191C310.3 865.734 295.184 856.499 282.191 845.797C280.026 843.977 280.026 843.977 277.715 842.391C277.149 841.932 276.583 841.473 276 841C276 840.34 276 839.68 276 839C275.01 838.67 274.02 838.34 273 838C257.558 823.787 247.402 802.787 241.586 782.991C241.071 781.241 240.522 779.5 239.969 777.762C238.272 771.957 237.851 766.632 237.93 760.633C237.935 759.896 237.94 759.16 237.945 758.401C237.958 756.6 237.978 754.8 238 753C239.68 752.986 239.68 752.986 241.393 752.972C245.564 752.932 249.735 752.866 253.906 752.793C255.708 752.764 257.51 752.743 259.312 752.729C261.909 752.708 264.505 752.661 267.102 752.609C267.902 752.608 268.702 752.607 269.527 752.606C274.782 752.469 277.84 751.489 282 748C285.743 742.423 288.014 736.286 290.443 730.053C293.337 722.796 293.337 722.796 296 720C296.66 720 297.32 720 298 720C300.185 726.068 301.744 732.031 302.875 738.375C303.04 739.259 303.205 740.143 303.375 741.054C304.361 746.357 305.287 751.668 306.191 756.984C306.399 758.17 306.606 759.355 306.819 760.577C307.221 762.881 307.61 765.188 307.986 767.498C309.273 774.824 311.221 781.534 315 788C317.709 789.354 320.009 789.065 323 789C330.636 772.104 332.627 753.616 335.449 735.471C336.098 731.385 336.816 727.319 337.563 723.25C338.86 716.086 339.901 708.894 340.938 701.688C342.57 690.367 344.603 679.182 347 668C349.844 670.844 349.475 673.769 349.67 677.596C349.718 678.38 349.765 679.164 349.814 679.972C349.969 682.574 350.112 685.178 350.254 687.781C350.36 689.593 350.467 691.405 350.575 693.216C350.857 697.999 351.128 702.783 351.397 707.567C351.776 714.278 352.169 720.988 352.561 727.698C352.77 731.271 352.975 734.843 353.176 738.416C353.588 745.663 354.016 752.887 354.803 760.105C355.053 762.51 355.157 764.904 355.211 767.32C355.818 788.83 357.76 810.222 360.5 831.563C360.606 832.43 360.712 833.297 360.822 834.19C361.516 839.251 362.597 843.468 365 848C367.577 849.052 367.577 849.052 370 849C382.331 834.772 383.127 807.563 385.646 789.494C387.089 779.33 388.778 769.209 390.55 759.097C390.809 757.613 391.066 756.128 391.32 754.642C392.806 745.971 394.448 737.435 397 729C397.66 729 398.32 729 399 729C402.044 737.433 403.782 745.998 405.486 754.787C407.11 762.564 409.145 770.555 414 777C416.473 778.046 416.473 778.046 419 778C423.46 775.349 425.747 771.556 428.313 767.188C432.269 760.739 436.53 754.49 444 752C446.283 751.849 448.569 751.751 450.856 751.684C451.517 751.663 452.179 751.642 452.86 751.621C454.969 751.555 457.078 751.496 459.188 751.438C460.619 751.394 462.051 751.351 463.482 751.307C466.988 751.2 470.494 751.098 474 751C474.66 749.02 475.32 747.04 476 745C471.304 744.9 466.61 744.828 461.913 744.78C460.319 744.76 458.724 744.733 457.13 744.698C447.184 744.487 440.01 744.503 431.75 750.684C425.984 756.463 422.041 762.949 418 770C415.822 766.733 415.277 764.42 414.449 760.602C414.162 759.316 413.876 758.031 413.58 756.707C413.136 754.683 412.695 752.659 412.258 750.633C409.654 735.084 409.654 735.084 401.999 722.174C399.369 720.629 397.999 720.4 395 721C386.574 730.071 385.854 744.596 384.05 756.36C383.468 760.151 382.864 763.939 382.262 767.727C381.954 769.662 381.648 771.597 381.343 773.533C375.421 811.087 375.421 811.087 371.75 828.125C371.599 828.842 371.448 829.559 371.292 830.297C370.931 831.882 370.476 833.446 370 835C369.34 835.33 368.68 835.66 368 836C366.152 826.373 365.303 816.761 364.625 807C364.534 805.731 364.534 805.731 364.44 804.436C363.537 791.886 362.773 779.328 362.059 766.766C362.018 766.057 361.978 765.349 361.937 764.619C361.771 761.711 361.606 758.802 361.441 755.894C360.177 733.659 358.889 711.438 356.938 689.25C356.823 687.913 356.823 687.913 356.707 686.549C355.231 668.521 355.231 668.521 351 651C349.02 651 347.04 651 345 651C341.693 659.11 339.848 667.061 338.438 675.688C338.041 678.025 337.644 680.362 337.246 682.699C337.046 683.89 336.847 685.08 336.641 686.307C335.98 690.114 335.256 693.905 334.523 697.699C332.944 705.962 331.743 714.268 330.552 722.593C328.587 736.255 326.428 749.847 323.688 763.375C323.433 764.633 323.179 765.892 322.917 767.188C321.153 775.694 321.153 775.694 320 778C319.34 778 318.68 778 318 778C315.009 768.171 313.368 758.166 311.701 748.054C309.551 728.145 309.551 728.145 300 712C297 711.083 297 711.083 294 712C286.254 717.668 283.365 728.337 280.309 737.02C278.833 740.381 277.664 742.45 275 745C271.975 745.446 269.528 745.587 266.516 745.488C265.7 745.481 264.884 745.474 264.044 745.467C261.445 745.439 258.848 745.376 256.25 745.313C254.486 745.287 252.721 745.265 250.957 745.244C246.637 745.189 242.319 745.103 238 745C237.709 735.705 238.005 727.502 240.563 718.5C240.832 717.516 241.102 716.532 241.379 715.518C243.762 707.168 246.878 699.642 251 692C251.312 691.404 251.624 690.808 251.945 690.194C266.889 661.727 292.778 640.917 322.801 629.992C361.43 618.012 404.909 624.594 437.339 648.869Z" fill="#F45091"/>
<path d="M918 619C932.52 619 947.04 619 962 619C962.33 631.54 962.66 644.08 963 657C965.64 654.69 968.28 652.38 971 650C979.676 645.522 989.28 644.485 998.688 647.062C1005.7 649.785 1010.48 654.32 1013.88 661C1019.54 675.585 1018.27 691.949 1018.2 707.309C1018.19 709.731 1018.19 712.153 1018.19 714.576C1018.18 720.903 1018.16 727.231 1018.14 733.558C1018.12 740.034 1018.11 746.51 1018.1 752.986C1018.08 765.658 1018.04 778.329 1018 791C1003.48 791 988.96 791 974 791C973.98 787.755 973.96 784.509 973.94 781.165C973.873 770.448 973.795 759.732 973.712 749.015C973.663 742.516 973.616 736.018 973.578 729.52C973.541 723.25 973.495 716.98 973.442 710.71C973.423 708.317 973.408 705.923 973.397 703.53C973.38 700.18 973.351 696.831 973.319 693.482C973.317 692.49 973.315 691.498 973.312 690.476C973.424 683.179 973.424 683.179 970 677C968.334 676.959 966.666 676.957 965 677C963.268 680.013 962.745 682.194 962.722 685.657C962.71 686.588 962.699 687.519 962.688 688.478C962.686 689.493 962.683 690.507 962.681 691.552C962.666 693.162 962.666 693.162 962.651 694.805C962.62 698.354 962.603 701.904 962.586 705.453C962.567 707.914 962.548 710.374 962.527 712.835C962.476 719.312 962.436 725.789 962.399 732.266C962.359 738.876 962.308 745.485 962.258 752.094C962.161 765.062 962.078 778.031 962 791C947.48 791 932.96 791 918 791C918 734.24 918 677.48 918 619Z" fill="white"/>
<path d="M1173.37 656.934C1183.24 666.813 1183.42 679.201 1183.46 692.336C1183.45 695.96 1183.42 699.583 1183.39 703.207C1183.38 705.744 1183.38 708.282 1183.37 710.819C1183.36 716.783 1183.33 722.746 1183.29 728.71C1183.24 735.508 1183.22 742.306 1183.2 749.105C1183.16 763.07 1183.09 777.035 1183 791C1169.14 791 1155.28 791 1141 791C1140.5 788.525 1140.5 788.525 1140 786C1139.09 786.743 1138.18 787.485 1137.25 788.25C1128.19 794.619 1117.85 796.222 1107 795C1099.22 793.302 1094.36 789.581 1090 783C1085.45 774.39 1085.41 765.765 1085.53 756.284C1085.56 753.872 1085.55 751.463 1085.54 749.051C1085.56 730.429 1085.56 730.429 1092 723.438C1098.25 718.472 1106.08 715.951 1113.43 713.029C1117.62 711.35 1121.79 709.6 1125.94 707.813C1126.69 707.504 1127.44 707.195 1128.21 706.877C1128.91 706.574 1129.62 706.27 1130.34 705.957C1130.95 705.699 1131.56 705.441 1132.19 705.175C1134.82 703.467 1136.29 701.619 1138 699C1138.58 696.064 1138.58 696.064 1138.46 692.93C1138.45 691.215 1138.45 691.215 1138.45 689.465C1138.42 688.28 1138.4 687.096 1138.37 685.875C1138.37 684.683 1138.37 683.49 1138.37 682.262C1138.53 675.76 1138.53 675.76 1136 670C1133 669.583 1133 669.583 1130 670C1127.17 672.83 1127.65 675.619 1127.59 679.414C1127.57 680.061 1127.55 680.708 1127.53 681.374C1127.47 683.791 1127.42 686.208 1127.37 688.625C1127.25 694.029 1127.13 699.433 1127 705C1113.47 705 1099.94 705 1086 705C1085.42 668.733 1085.42 668.733 1095 658C1113.59 640.172 1153.98 641.141 1173.37 656.934ZM1133.56 729.125C1132.97 729.705 1132.37 730.285 1131.75 730.883C1126.33 737.425 1126.54 743.525 1126.62 751.688C1126.61 752.828 1126.6 753.968 1126.59 755.143C1126.59 756.234 1126.6 757.325 1126.6 758.449C1126.6 759.443 1126.61 760.436 1126.61 761.46C1126.8 764.027 1126.8 764.027 1128.34 765.824C1130.93 767.656 1132.92 767.385 1136 767C1137.74 765.772 1137.74 765.772 1139 764C1139.26 761.058 1139.35 758.333 1139.29 755.395C1139.29 754.555 1139.28 753.716 1139.28 752.852C1139.26 750.172 1139.23 747.492 1139.19 744.813C1139.17 742.995 1139.16 741.178 1139.15 739.361C1139.11 734.907 1139.06 730.454 1139 726C1136.19 726 1135.53 727.173 1133.56 729.125Z" fill="white"/>
<path d="M841 655C850.009 662.174 855.533 671.47 857.636 682.787C858.474 690.193 858.198 697.683 858.125 705.125C858.083 711.024 858.042 716.923 858 723C839.85 723 821.7 723 803 723C803.123 729.889 803.247 736.778 803.375 743.875C803.409 746.05 803.443 748.224 803.478 750.465C803.513 752.182 803.549 753.9 803.585 755.617C803.602 756.962 803.602 756.962 803.62 758.334C803.64 759.187 803.66 760.039 803.681 760.918C803.694 761.659 803.707 762.401 803.721 763.165C803.852 765.247 803.852 765.247 806 767C809 767.333 809 767.333 812 767C815.698 763.301 815.142 757.733 815.316 752.727C815.354 751.686 815.392 750.645 815.431 749.573C815.475 748.27 815.518 746.967 815.562 745.625C815.706 741.459 815.851 737.293 816 733C829.86 733 843.72 733 858 733C858.605 765.7 858.605 765.7 849 779C848.257 780.073 847.515 781.145 846.75 782.25C836.75 792.25 823.686 795.203 810 795.25C795.203 795.23 781.935 792.603 770.687 782.375C762.5 773.6 758.78 762.239 758.709 750.413C758.702 749.702 758.696 748.99 758.689 748.257C758.67 745.927 758.666 743.599 758.664 741.27C758.657 739.631 758.65 737.992 758.643 736.353C758.631 732.924 758.628 729.496 758.629 726.067C758.629 721.708 758.602 717.349 758.567 712.99C758.545 709.605 758.541 706.22 758.542 702.836C758.54 701.23 758.531 699.625 758.515 698.02C758.386 683.379 760.388 670.169 770.812 659.07C788.923 642.055 820.88 641.036 841 655ZM804.362 674.187C802.507 676.656 802.656 678.258 802.707 681.324C802.716 682.352 802.726 683.38 802.736 684.44C802.761 685.511 802.786 686.583 802.812 687.688C802.826 688.771 802.839 689.855 802.853 690.971C802.888 693.647 802.942 696.324 803 699C807.29 699 811.58 699 816 699C816.054 696.312 816.093 693.626 816.125 690.938C816.141 690.185 816.158 689.433 816.175 688.658C816.218 683.716 815.783 679.635 814 675C810.621 672.748 807.897 671.625 804.362 674.187Z" fill="white"/>
<path d="M679 655C680.093 655.701 681.186 656.402 682.312 657.125C693.008 668.567 692 680.947 692 696C678.47 696 664.94 696 651 696C650.67 690.39 650.34 684.78 650 679C649.34 678.01 648.68 677.02 648 676C644.416 675.75 644.416 675.75 641 676C638.991 680.143 638.598 683.415 639 688C641.012 693.227 643.397 695.4 648.125 698.312C648.732 698.69 649.338 699.068 649.963 699.456C654.794 702.409 659.785 705.027 664.812 707.625C675.902 713.367 687.284 720.534 691.492 732.945C694.715 745.985 695.525 763.97 689 776C682.251 787.089 673.314 790.977 661 794C644.736 796.98 624.406 797.055 609.875 788.25C602.548 782.657 598.782 775.973 597 767C596.664 762.28 596.714 757.603 596.812 752.875C596.905 746.502 596.905 746.502 597 740C610.2 740 623.4 740 637 740C637.25 750.75 637.25 750.75 637.298 754.12C637.433 759.753 637.433 759.753 639.851 764.707C642.028 766.277 642.028 766.277 645.125 765.937C648.292 765.233 648.292 765.233 650 762C650.356 758.969 650.356 758.969 650.312 755.625C650.329 754.503 650.346 753.382 650.363 752.227C649.867 747.822 648.668 745.486 645.344 742.525C640.503 738.714 635.319 735.962 629.812 733.25C616.633 726.504 604.619 719.059 599.125 704.625C595.938 692.486 596.583 676.738 602.254 665.519C608.387 655.543 616.475 650.153 627.707 647.316C645.287 643.829 663.737 645.08 679 655Z" fill="white"/>
<path d="M1255 628C1270.18 628 1285.36 628 1301 628C1301 635.26 1301 642.52 1301 650C1304.63 650 1308.26 650 1312 650C1312 657.92 1312 665.84 1312 674C1308.37 674 1304.74 674 1301 674C1301.33 704.36 1301.66 734.72 1302 766C1305.3 766.33 1308.6 766.66 1312 767C1312 774.92 1312 782.84 1312 791C1306.77 791.092 1301.54 791.172 1296.31 791.22C1294.54 791.24 1292.76 791.267 1290.99 791.302C1269.28 791.717 1269.28 791.717 1262.09 785.291C1254.42 777.248 1254.84 766.089 1254.89 755.625C1254.89 754.736 1254.89 753.847 1254.89 752.931C1254.89 750.026 1254.89 747.12 1254.9 744.215C1254.9 742.187 1254.91 740.16 1254.91 738.133C1254.91 732.821 1254.92 727.509 1254.93 722.198C1254.94 716.768 1254.95 711.338 1254.95 705.908C1254.96 695.272 1254.98 684.636 1255 674C1252.03 674 1249.06 674 1246 674C1246 666.08 1246 658.16 1246 650C1248.97 650 1251.94 650 1255 650C1255 642.74 1255 635.48 1255 628Z" fill="white"/>
<path d="M345 650C346.98 650 348.96 650 351 650C357.562 663.489 357.131 680.497 358.402 695.203C358.466 695.934 358.529 696.665 358.594 697.418C360.522 719.915 361.743 742.462 363.062 765C363.509 772.616 363.958 780.231 364.414 787.846C364.591 790.832 364.764 793.818 364.936 796.803C365.465 805.785 366.1 814.741 367.025 823.691C367.147 824.886 367.147 824.886 367.272 826.104C367.611 829.219 368.006 832.018 369 835C373.044 816.707 376.186 798.309 379.125 779.812C379.77 775.756 380.418 771.7 381.072 767.644C381.473 765.149 381.871 762.654 382.264 760.158C383.52 752.349 385.145 744.686 387 737C387.241 735.951 387.482 734.903 387.73 733.822C389.075 728.067 390.338 723.814 395 720C398.562 719.812 398.562 719.812 402 721C411.972 731.556 413.452 751.027 416.415 764.624C416.907 766.997 416.907 766.997 418 769C418.727 767.732 418.727 767.732 419.469 766.438C425.044 757.003 430.972 747.459 442 744C446.721 743.505 451.384 743.577 456.125 743.688C457.374 743.697 458.623 743.707 459.91 743.717C465.394 743.784 482.598 742.991 488 744C487.125 749.875 491.5 751.099 474 752C471.864 752.11 469.725 752.156 467.586 752.176C466.267 752.2 464.949 752.223 463.59 752.248C461.49 752.283 459.391 752.312 457.291 752.326C448.456 752.394 442.121 752.508 435.25 758.535C431.659 762.923 428.69 767.564 425.809 772.449C423.821 775.252 421.822 777.054 419 779C416.5 779.25 416.5 779.25 414 778C406.927 769.714 405.197 758.11 402.875 747.812C402.611 746.663 402.346 745.514 402.074 744.33C400.911 739.233 399.823 734.165 399 729C398.34 729 397.68 729 397 729C395.168 738.421 393.521 747.852 392.058 757.338C391.321 762.075 390.488 766.77 389.497 771.461C388.097 778.614 387.154 785.863 386.141 793.078C384.534 804.35 382.626 815.479 380 826.562C379.763 827.578 379.526 828.593 379.282 829.64C375.347 845.643 375.347 845.643 370 850C367.5 849.938 367.5 849.938 365 849C356.353 839.899 357.99 817.919 357.002 805.845C356.942 805.119 356.883 804.392 356.821 803.644C356.658 801.645 356.5 799.645 356.341 797.646C356.113 795.21 355.824 792.779 355.475 790.357C355.065 787.459 354.837 784.684 354.754 781.762C354.721 780.774 354.688 779.786 354.654 778.768C354.595 776.788 354.538 774.809 354.482 772.83C354.228 765.302 353.696 757.817 353.098 750.309C351.861 734.758 350.932 719.192 350.008 703.62C349.782 699.81 349.553 696.001 349.324 692.191C348.88 684.794 348.439 677.397 348 670C346.369 675.275 345.353 680.452 344.555 685.91C344.284 687.701 344.013 689.492 343.742 691.282C343.601 692.223 343.46 693.164 343.315 694.134C340.825 710.711 338.203 727.267 335.379 743.791C335.048 745.735 334.72 747.679 334.397 749.624C332.827 759.044 331.107 768.336 328.445 777.516C328.148 778.547 328.148 778.547 327.844 779.599C326.679 783.407 325.379 786.787 323 790C319.529 790.665 317.818 790.553 314.875 788.562C309.569 781.31 308.012 773.211 306.562 764.5C306.144 762.112 305.723 759.724 305.301 757.336C305.089 756.125 304.877 754.914 304.659 753.667C303.605 747.803 302.432 741.964 301.25 736.125C301.039 735.08 300.829 734.035 300.612 732.959C300.24 731.117 299.867 729.276 299.493 727.434C298.991 724.957 298.495 722.479 298 720C292.749 724.143 291.344 730.398 289.176 736.471C286.789 742.827 283.987 748.15 278.357 752.175C274.727 753.446 271.095 753.244 267.297 753.195C266.459 753.192 265.621 753.19 264.758 753.187C262.089 753.176 259.419 753.15 256.75 753.125C254.938 753.115 253.125 753.106 251.312 753.098C246.875 753.076 242.437 753.041 238 753C238 754.98 238 756.96 238 759C237.67 759 237.34 759 237 759C237 752.4 237 745.8 237 739C237.33 739 237.66 739 238 739C238 740.98 238 742.96 238 745C243.215 744.956 248.429 744.886 253.643 744.792C255.417 744.764 257.191 744.743 258.966 744.729C261.515 744.708 264.064 744.661 266.613 744.609C267.407 744.608 268.201 744.607 269.019 744.606C273.367 744.528 273.367 744.528 276.905 742.247C278.001 739.997 279.018 737.787 279.902 735.445C280.402 734.152 280.402 734.152 280.912 732.832C281.593 731.035 282.272 729.239 282.951 727.441C288.102 714.122 288.102 714.122 294 711C296.875 710.375 296.875 710.375 300 711C307.693 716.084 308.722 726.925 310.485 735.307C311.631 741.024 312.662 746.761 313.688 752.5C313.998 754.203 314.308 755.906 314.619 757.609C315.852 764.395 317.064 771.166 318 778C318.66 778 319.32 778 320 778C326.295 743.391 326.295 743.391 331.625 708.625C332.707 700.823 333.993 693.107 335.535 685.381C336.097 682.502 336.627 679.618 337.16 676.734C337.585 674.489 338.011 672.245 338.438 670C338.631 668.937 338.824 667.874 339.023 666.778C340.228 660.552 341.872 655.526 345 650Z" fill="#FCF6F9"/>
<path d="M643 826C648.28 826 653.56 826 659 826C659.66 834.25 660.32 842.5 661 851C661.433 848.154 661.433 848.154 661.875 845.25C662.863 838.824 663.919 832.411 665 826C669.62 826 674.24 826 679 826C680.252 828.504 680.417 830.662 680.754 833.445C680.873 834.415 680.993 835.384 681.116 836.383C681.263 837.618 681.411 838.853 681.563 840.125C682.037 844.044 682.512 847.963 683 852C683.66 843.42 684.32 834.84 685 826C689.95 826 694.9 826 700 826C698.02 843.49 696.04 860.98 694 879C687.73 879 681.46 879 675 879C673.863 872.327 672.841 865.723 672 859C671.01 865.6 670.02 872.2 669 879C665.886 879.021 662.772 879.041 659.563 879.062C658.58 879.072 657.597 879.081 656.584 879.09C655.815 879.093 655.046 879.095 654.254 879.098C653.463 879.103 652.673 879.108 651.858 879.114C650 879 650 879 649 878C648.732 876.594 648.522 875.178 648.336 873.759C648.216 872.858 648.096 871.956 647.972 871.027C647.846 870.045 647.72 869.063 647.59 868.051C647.458 867.045 647.327 866.04 647.191 865.004C646.912 862.87 646.636 860.736 646.361 858.601C645.942 855.343 645.513 852.087 645.084 848.83C644.815 846.758 644.546 844.686 644.278 842.613C644.15 841.641 644.021 840.669 643.889 839.668C643.773 838.75 643.656 837.833 643.535 836.888C643.432 836.087 643.328 835.286 643.221 834.461C642.969 831.651 643 828.821 643 826Z" fill="white"/>
<path d="M829 815C834.61 815 840.22 815 846 815C846.33 819.29 846.66 823.58 847 828C848.65 827.01 850.3 826.02 852 825C855.734 824.6 858.244 824.708 861.75 826.062C865.283 829.105 866.751 832.765 867.259 837.326C867.346 839.992 867.338 842.642 867.293 845.309C867.289 846.275 867.284 847.242 867.28 848.238C867.263 851.305 867.226 854.371 867.188 857.438C867.172 859.525 867.159 861.613 867.146 863.701C867.114 868.801 867.062 873.9 867 879C861.39 879 855.78 879 850 879C849.67 865.47 849.34 851.94 849 838C848.34 838 847.68 838 847 838C846.67 851.53 846.34 865.06 846 879C840.39 879 834.78 879 829 879C829 857.88 829 836.76 829 815Z" fill="white"/>
<path d="M616.562 813.563C617.291 813.555 618.02 813.548 618.771 813.541C623.552 813.597 626.848 814.426 631 817C634.849 820.951 635.237 824.055 635.25 829.375C635.167 831.231 635.085 833.087 635 835C629.72 835 624.44 835 619 835C618.67 832.03 618.34 829.06 618 826C617.01 825.67 616.02 825.34 615 825C614.59 830.053 614.59 830.053 616.676 834.527C619.106 837.113 621.363 838.627 624.437 840.375C630.282 843.949 633.786 847.358 636 854C636.148 856.619 636.231 859.193 636.25 861.812C636.27 862.512 636.291 863.211 636.312 863.932C636.348 868.729 635.503 871.92 633 876C628.511 880.489 622.626 881.128 616.562 881.312C610.21 881.173 605.215 880.215 600.562 875.562C596.732 869.28 597.934 862.137 598 855C603.28 855 608.56 855 614 855C614.195 858.06 614.39 861.12 614.586 864.18C614.732 867.13 614.732 867.13 617 869C618.559 867.44 618.282 865.911 618.375 863.75C618.306 860.365 618.195 859.276 616.187 856.438C614.333 854.881 612.362 853.566 610.359 852.203C599.478 844.697 599.478 844.697 598 838C597.262 830.918 596.991 824.079 601 818C606.317 814.285 610.15 813.386 616.562 813.563Z" fill="white"/>
<path d="M1057 813.625C1058.03 813.608 1058.03 813.608 1059.08 813.59C1065.13 813.625 1069 815.086 1073.36 819.262C1076.33 824.226 1075.23 829.349 1075 835C1070.05 835 1065.1 835 1060 835C1059.51 830.05 1059.51 830.05 1059 825C1058.01 825.33 1057.02 825.66 1056 826C1055.28 830.072 1055.28 830.072 1056 834C1058.25 836.129 1060.62 837.639 1063.25 839.273C1065.87 840.919 1068.16 842.667 1070.5 844.688C1071.13 845.228 1071.76 845.768 1072.41 846.324C1077.29 851.464 1076.91 858.26 1077 865C1076.66 870.17 1075.85 873.068 1072.31 876.938C1065.22 881.353 1057.58 882.177 1049.46 880.465C1045.99 879.43 1043.59 878.588 1041 876C1038.8 871.6 1038.88 867.612 1038.94 862.812C1038.94 862.063 1038.95 861.313 1038.95 860.541C1038.96 858.694 1038.98 856.847 1039 855C1043.95 854.67 1048.9 854.34 1054 854C1052.43 852.948 1050.87 851.896 1049.25 850.812C1044.85 847.739 1041.43 844.868 1039 840C1038.82 837.235 1038.72 834.517 1038.69 831.75C1038.66 830.998 1038.63 830.247 1038.6 829.473C1038.54 824.19 1039.35 821.087 1043 817C1047.53 813.947 1051.66 813.535 1057 813.625ZM1055 855C1055 859.62 1055 864.24 1055 869C1055.99 869.33 1056.98 869.66 1058 870C1060.5 866.25 1060.54 864.441 1060 860C1057.65 857.06 1057.65 857.06 1055 855Z" fill="white"/>
<path d="M1244 815C1249.28 815 1254.56 815 1260 815C1260.33 819.29 1260.66 823.58 1261 828C1262.65 827.01 1264.3 826.02 1266 825C1270.17 824.123 1273.2 824.532 1276.88 826.688C1281.73 831.973 1281.27 837.526 1281.2 844.332C1281.19 845.324 1281.19 846.316 1281.19 847.337C1281.18 850.496 1281.15 853.654 1281.12 856.812C1281.11 858.958 1281.11 861.103 1281.1 863.248C1281.08 868.499 1281.04 873.749 1281 879C1275.39 879 1269.78 879 1264 879C1264 865.14 1264 851.28 1264 837C1263.01 837 1262.02 837 1261 837C1260.67 850.86 1260.34 864.72 1260 879C1254.72 879 1249.44 879 1244 879C1244 857.88 1244 836.76 1244 815Z" fill="white"/>
<path d="M1117 828C1120.75 831.847 1122.13 834.967 1122.11 840.288C1122.11 841.149 1122.11 842.009 1122.11 842.896C1122.11 843.821 1122.1 844.746 1122.1 845.699C1122.1 846.65 1122.09 847.6 1122.09 848.579C1122.09 851.615 1122.08 854.651 1122.06 857.688C1122.06 859.746 1122.05 861.804 1122.05 863.862C1122.04 868.908 1122.02 873.954 1122 879C1116 879 1110 879 1104 879C1103.32 879.351 1102.64 879.701 1101.94 880.063C1097.79 881.386 1094.2 881.098 1090 880C1087.01 877.754 1086.18 876.552 1085 873C1084.85 870.545 1084.78 868.085 1084.75 865.625C1084.71 863.665 1084.71 863.665 1084.67 861.664C1085.02 857.757 1085.5 855.989 1088 853C1091.54 850.926 1095.19 849.568 1099 848C1092.07 847.505 1092.07 847.505 1085 847C1084.69 839.532 1084.81 834.399 1089.31 828.188C1097.17 822.659 1108.84 823.775 1117 828ZM1102 834C1100.69 835.086 1100.69 835.086 1100.9 837.723C1100.91 838.825 1100.93 839.927 1100.94 841.063C1100.95 842.167 1100.96 843.272 1100.96 844.41C1100.98 845.265 1100.99 846.12 1101 847C1102.32 846.34 1103.64 845.68 1105 845C1105 841.7 1105 838.4 1105 835C1104.01 834.67 1103.02 834.34 1102 834ZM1102.45 857.176C1100.51 859.616 1100.69 861.113 1100.81 864.188C1100.84 865.089 1100.87 865.99 1100.89 866.918C1100.93 867.605 1100.96 868.292 1101 869C1102.32 869 1103.64 869 1105 869C1105 864.71 1105 860.42 1105 856C1103.81 855.9 1103.81 855.9 1102.45 857.176Z" fill="white"/>
<path d="M739 828C742.751 831.847 744.129 834.967 744.114 840.288C744.113 841.149 744.113 842.009 744.113 842.896C744.108 843.821 744.103 844.746 744.098 845.699C744.096 846.65 744.095 847.6 744.093 848.579C744.088 851.615 744.075 854.651 744.062 857.688C744.057 859.746 744.053 861.804 744.049 863.862C744.038 868.908 744.021 873.954 744 879C738 879 732 879 726 879C725.319 879.351 724.639 879.701 723.938 880.063C719.79 881.386 716.195 881.098 712 880C709.005 877.754 708.184 876.552 707 873C706.853 870.545 706.779 868.085 706.75 865.625C706.711 863.665 706.711 863.665 706.672 861.664C707.022 857.757 707.5 855.989 710 853C713.538 850.926 717.192 849.568 721 848C714.07 847.505 714.07 847.505 707 847C706.693 839.532 706.815 834.399 711.312 828.188C719.17 822.659 730.84 823.775 739 828ZM724 834C722.687 835.086 722.687 835.086 722.902 837.723C722.914 838.825 722.926 839.927 722.938 841.063C722.947 842.167 722.956 843.272 722.965 844.41C722.976 845.265 722.988 846.12 723 847C724.32 846.34 725.64 845.68 727 845C727 841.7 727 838.4 727 835C726.01 834.67 725.02 834.34 724 834ZM724.449 857.176C722.511 859.616 722.693 861.113 722.812 864.188C722.84 865.089 722.867 865.99 722.895 866.918C722.929 867.605 722.964 868.292 723 869C724.32 869 725.64 869 727 869C727 864.71 727 860.42 727 856C725.808 855.9 725.808 855.9 724.449 857.176Z" fill="white"/>
<path d="M1163 828C1165.86 830.345 1166.83 831.482 1168 835C1168.09 836.458 1168.12 837.919 1168.11 839.38C1168.11 840.26 1168.11 841.141 1168.11 842.048C1168.11 842.995 1168.1 843.942 1168.1 844.918C1168.1 845.89 1168.09 846.863 1168.09 847.865C1168.09 850.972 1168.08 854.08 1168.06 857.187C1168.06 859.294 1168.05 861.4 1168.05 863.506C1168.04 868.671 1168.02 873.835 1168 879C1166.14 878.965 1166.14 878.965 1164.24 878.93C1162.6 878.911 1160.95 878.893 1159.31 878.875C1158.09 878.85 1158.09 878.85 1156.84 878.824C1152.38 878.788 1149.08 879.017 1145 881C1141.87 881.206 1139.02 880.874 1136 880C1132.66 876.99 1131.39 874.436 1131 870C1130.7 864.296 1130.52 859.281 1133 854C1135.64 852.207 1135.64 852.207 1138.81 850.812C1144.66 848.335 1144.66 848.335 1150 845C1150.6 842.496 1150.6 842.496 1150.31 839.812C1150.27 838.911 1150.22 838.01 1150.18 837.082C1150.12 836.395 1150.06 835.708 1150 835C1149.34 835 1148.68 835 1148 835C1147.67 838.96 1147.34 842.92 1147 847C1141.72 847 1136.44 847 1131 847C1131.68 833.502 1131.68 833.502 1135 829C1143.33 823.022 1154.08 823.618 1163 828ZM1148.44 857.437C1146.32 861.212 1146.76 864.764 1147 869C1148.32 869 1149.64 869 1151 869C1151 864.71 1151 860.42 1151 856C1149.77 855.887 1149.77 855.887 1148.44 857.437Z" fill="white"/>
<path d="M997 828C999.858 830.345 1000.83 831.482 1002 835C1002.09 836.458 1002.12 837.919 1002.11 839.38C1002.11 840.26 1002.11 841.141 1002.11 842.048C1002.11 842.995 1002.1 843.942 1002.1 844.918C1002.1 845.89 1002.09 846.863 1002.09 847.865C1002.09 850.972 1002.08 854.08 1002.06 857.187C1002.06 859.294 1002.05 861.4 1002.05 863.506C1002.04 868.671 1002.02 873.835 1002 879C1000.14 878.965 1000.14 878.965 998.238 878.93C996.596 878.911 994.954 878.893 993.312 878.875C992.087 878.85 992.087 878.85 990.838 878.824C986.383 878.788 983.083 879.017 979 881C975.866 881.206 973.017 880.874 970 880C966.656 876.99 965.394 874.436 965 870C964.703 864.296 964.524 859.281 967 854C969.644 852.207 969.644 852.207 972.812 850.812C978.656 848.335 978.656 848.335 984 845C984.603 842.496 984.603 842.496 984.312 839.812C984.267 838.911 984.222 838.01 984.176 837.082C984.118 836.395 984.06 835.708 984 835C983.34 835 982.68 835 982 835C981.67 838.96 981.34 842.92 981 847C975.72 847 970.44 847 965 847C965.682 833.502 965.682 833.502 969 829C977.326 823.022 988.08 823.618 997 828ZM982.437 857.437C980.32 861.212 980.755 864.764 981 869C982.32 869 983.64 869 985 869C985 864.71 985 860.42 985 856C983.769 855.887 983.769 855.887 982.437 857.437Z" fill="white"/>
<path d="M909 828C913.661 833.236 913.534 837.781 913.39 844.43C913.385 845.42 913.379 846.41 913.373 847.431C913.351 850.579 913.301 853.727 913.25 856.875C913.23 859.015 913.211 861.156 913.195 863.297C913.151 868.531 913.084 873.766 913 879C911.246 878.965 911.246 878.965 909.457 878.93C907.908 878.911 906.36 878.893 904.812 878.875C903.659 878.85 903.659 878.85 902.482 878.824C898.127 878.787 895.01 879.128 891 881C886.018 881.445 882.955 881.164 879 878C876.459 873.771 876.561 869.876 876.5 865.062C876.458 864.264 876.417 863.465 876.375 862.642C876.315 858.141 876.493 856.556 879.632 853.109C882.834 851.103 885.858 849.555 889.375 848.187C890.434 847.768 891.494 847.349 892.586 846.918C893.382 846.615 894.179 846.312 895 846C895 842.37 895 838.74 895 835C894.34 834.67 893.68 834.34 893 834C892.67 838.29 892.34 842.58 892 847C887.05 847 882.1 847 877 847C876.517 835.167 876.517 835.167 878.5 830.375C886.51 822.765 899.632 822.981 909 828ZM895 856C891.945 860.033 891.623 863.01 892 868C892.33 868.66 892.66 869.32 893 870C893.99 869.67 894.98 869.34 896 869C896 864.71 896 860.42 896 856C895.67 856 895.34 856 895 856Z" fill="white"/>
<path d="M921 826C926.28 826 931.56 826 937 826C938.485 838.375 938.485 838.375 940 851C941.709 849.291 941.351 846.992 941.535 844.652C941.622 843.573 941.709 842.493 941.799 841.381C941.886 840.245 941.973 839.108 942.062 837.938C942.153 836.797 942.244 835.657 942.338 834.482C942.563 831.655 942.782 828.828 943 826C947.95 826 952.9 826 958 826C957.326 835.32 956.229 844.539 954.953 853.792C954.624 856.193 954.308 858.595 953.992 860.998C951.444 879.906 951.444 879.906 946.988 885.547C942.436 887.761 938.172 887.424 933.188 887.25C931.719 887.223 931.719 887.223 930.221 887.195C927.813 887.148 925.407 887.083 923 887C923 884.36 923 881.72 923 879C924.98 878.34 926.96 877.68 929 877C927.96 869.869 926.806 862.772 925.492 855.688C925.361 854.978 925.229 854.269 925.094 853.538C924.55 850.612 924.004 847.687 923.454 844.762C923.046 842.592 922.644 840.421 922.242 838.25C922.004 836.976 921.765 835.703 921.519 834.391C921 831 921 831 921 826Z" fill="white"/>
<path d="M784 828C786.5 830 786.5 830 788 833C788.316 836.735 788.181 840.237 788 844C783.05 844 778.1 844 773 844C772.67 841.36 772.34 838.72 772 836C771.01 836.495 771.01 836.495 770 837C769.342 840.029 769.342 840.029 769 843C770.081 843.408 770.081 843.408 771.184 843.824C777.655 846.526 784.215 849.911 788 856C789.889 861.666 789.725 867.786 787.875 873.437C785.153 877.158 782.126 879.291 777.75 880.75C770.64 881.396 763.275 882.014 757 878C754.159 875.189 753.079 873.677 752.609 869.668C752.74 866.445 752.87 863.223 753 860C759.435 859.505 759.435 859.505 766 859C764.577 858.092 763.154 857.185 761.688 856.25C757.282 853.44 754.673 851.018 753 846C752.465 840.025 752.487 835.087 756 830C763.654 822.739 774.985 823.413 784 828ZM768 860C767.938 861.279 767.876 862.557 767.812 863.875C767.778 864.594 767.743 865.314 767.707 866.055C767.804 866.697 767.9 867.339 768 868C769.485 868.99 769.485 868.99 771 870C771.66 869.34 772.32 868.68 773 868C772.993 864.96 772.993 864.96 772 862C770.048 860.564 770.048 860.564 768 860Z" fill="white"/>
<path d="M1200 756C1211.22 756 1222.44 756 1234 756C1234 767.55 1234 779.1 1234 791C1222.78 791 1211.56 791 1200 791C1200 779.45 1200 767.9 1200 756Z" fill="white"/>
<path d="M1035 756C1046.22 756 1057.44 756 1069 756C1069 767.55 1069 779.1 1069 791C1057.78 791 1046.56 791 1035 791C1035 779.45 1035 767.9 1035 756Z" fill="white"/>
<path d="M866 756C877.22 756 888.44 756 900 756C900 767.55 900 779.1 900 791C888.78 791 877.56 791 866 791C866 779.45 866 767.9 866 756Z" fill="white"/>
<path d="M708 756C719.22 756 730.44 756 742 756C742 767.55 742 779.1 742 791C730.78 791 719.56 791 708 791C708 779.45 708 767.9 708 756Z" fill="white"/>
<path d="M803.816 817.902C805.398 817.909 806.981 817.921 808.562 817.938C809.369 817.942 810.175 817.947 811.006 817.951C813.004 817.963 815.002 817.981 817 818C817 820.64 817 823.28 817 826C818.32 826 819.64 826 821 826C821 829.3 821 832.6 821 836C819.68 836 818.36 836 817 836C817 847.22 817 858.44 817 870C818.32 870 819.64 870 821 870C821 872.97 821 875.94 821 879C818.249 879.108 815.502 879.187 812.75 879.25C811.584 879.3 811.584 879.3 810.395 879.352C806.758 879.414 804.638 879.405 801.516 877.422C798.363 872.384 798.879 866.096 798.902 860.316C798.904 859.266 798.904 859.266 798.907 858.194C798.912 855.984 798.925 853.773 798.938 851.562C798.943 850.053 798.947 848.543 798.951 847.033C798.962 843.355 798.979 839.678 799 836C798.01 836 797.02 836 796 836C796 832.7 796 829.4 796 826C796.99 826 797.98 826 799 826C798.979 824.866 798.959 823.731 798.938 822.562C799.017 818.025 799.017 818.025 803.816 817.902Z" fill="white"/>
<path d="M1214 818C1219.61 818 1225.22 818 1231 818C1231 820.64 1231 823.28 1231 826C1232.32 826 1233.64 826 1235 826C1235 829.3 1235 832.6 1235 836C1233.68 836 1232.36 836 1231 836C1231.33 846.89 1231.66 857.78 1232 869C1233.49 869.495 1233.49 869.495 1235 870C1235 872.97 1235 875.94 1235 879C1232.44 879.136 1229.88 879.234 1227.31 879.312C1226.59 879.354 1225.87 879.396 1225.13 879.439C1224.07 879.464 1224.07 879.464 1222.99 879.488C1222.34 879.514 1221.7 879.541 1221.04 879.568C1217.56 878.599 1216.15 876.843 1214 874C1213.34 871.05 1213.42 868.21 1213.51 865.199C1213.52 864.363 1213.53 863.526 1213.53 862.665C1213.56 860.005 1213.62 857.347 1213.69 854.688C1213.71 852.88 1213.74 851.072 1213.76 849.264C1213.81 844.842 1213.9 840.421 1214 836C1212.68 836 1211.36 836 1210 836C1210 832.7 1210 829.4 1210 826C1211.32 826 1212.64 826 1214 826C1214 823.36 1214 820.72 1214 818Z" fill="white"/>
<path d="M1204 825C1204 831.6 1204 838.2 1204 845C1201.69 845.66 1199.38 846.32 1197 847C1195.09 848.912 1195.76 852.336 1195.68 854.879C1195.66 855.566 1195.64 856.252 1195.62 856.96C1195.56 859.161 1195.5 861.361 1195.44 863.562C1195.39 865.051 1195.35 866.54 1195.31 868.029C1195.2 871.686 1195.1 875.343 1195 879C1189.39 879 1183.78 879 1178 879C1178 861.51 1178 844.02 1178 826C1183.28 826 1188.56 826 1194 826C1194.33 826.99 1194.66 827.98 1195 829C1195.93 828.34 1196.86 827.68 1197.81 827C1201 825 1201 825 1204 825Z" fill="white"/>
<path d="M1291 826C1296.61 826 1302.22 826 1308 826C1308 843.49 1308 860.98 1308 879C1302.39 879 1296.78 879 1291 879C1291 861.51 1291 844.02 1291 826Z" fill="white"/>
<path d="M417 664C418.646 663.973 420.292 663.954 421.938 663.938C422.854 663.926 423.771 663.914 424.715 663.902C427 664 427 664 428 665C428.141 667.671 428.042 670.324 428 673C429.299 672.979 430.599 672.959 431.938 672.938C433.292 672.916 434.648 672.929 436 673C437 674 437 674 437.133 676.25C437.13 677.158 437.128 678.065 437.125 679C437.129 680.361 437.129 680.361 437.133 681.75C437 684 437 684 436 685C433.329 685.141 430.676 685.042 428 685C428.021 686.299 428.041 687.599 428.062 688.938C428.084 690.292 428.071 691.648 428 693C427 694 427 694 424.969 694.133C424.154 694.13 423.339 694.128 422.5 694.125C421.685 694.128 420.871 694.13 420.031 694.133C418 694 418 694 417 693C416.928 691.481 416.916 689.958 416.938 688.438C416.947 687.611 416.956 686.785 416.965 685.934C416.976 685.296 416.988 684.657 417 684C416.362 684.012 415.724 684.023 415.066 684.035C413.827 684.049 413.827 684.049 412.562 684.062C411.327 684.08 411.327 684.08 410.066 684.098C408 684 408 684 407 683C406.902 681.503 406.87 680.001 406.875 678.5C406.872 677.685 406.87 676.871 406.867 676.031C407 674 407 674 408 673C411.003 672.858 413.992 672.958 417 673C417 670.03 417 667.06 417 664Z" fill="#FDF8FA"/>
<path d="M537 665C537.33 665 537.66 665 538 665C538 720.77 538 776.54 538 834C537.67 834 537.34 834 537 834C537 778.23 537 722.46 537 665Z" fill="white"/>
<path d="M1291 815C1296.61 815 1302.22 815 1308 815C1308 817.97 1308 820.94 1308 824C1302.39 824 1296.78 824 1291 824C1291 821.03 1291 818.06 1291 815Z" fill="white"/>
<path d="M347 668C349 670 349 670 349.195 672.383C349.172 673.288 349.149 674.193 349.125 675.125C349.107 676.035 349.089 676.945 349.07 677.883C349.047 678.581 349.024 679.28 349 680C347.68 680.33 346.36 680.66 345 681C345.608 676.655 346.262 672.324 347 668Z" fill="#FD72A9"/>
</svg>
