<svg width="1500" height="1500" viewBox="0 0 1500 1500" fill="none" xmlns="http://www.w3.org/2000/svg">
<path d="M294.409 573.87C296.062 573.869 297.715 573.867 299.369 573.865C303.837 573.861 308.306 573.862 312.775 573.866C317.463 573.868 322.15 573.866 326.837 573.864C334.706 573.862 342.575 573.865 350.444 573.869C359.53 573.875 368.616 573.873 377.702 573.868C385.517 573.863 393.332 573.862 401.147 573.865C405.808 573.867 410.47 573.867 415.131 573.864C419.513 573.861 423.896 573.863 428.278 573.868C429.882 573.87 431.487 573.869 433.091 573.867C435.288 573.864 437.485 573.868 439.683 573.873C440.91 573.873 442.137 573.874 443.401 573.874C455.72 574.305 467.586 577.474 479 582C480.485 582.588 480.485 582.588 482 583.187C482.66 583.455 483.32 583.724 484 584C484 584.66 484 585.32 484 586C485.323 586.139 485.323 586.139 486.672 586.281C498.197 588.77 509.957 601.918 517 611C517 611.66 517 612.32 517 613C517.66 613 518.32 613 519 613C519.124 613.639 519.248 614.279 519.375 614.937C519.581 615.618 519.788 616.299 520 617C520.66 617.33 521.32 617.66 522 618C526 623.294 526 623.294 526 628C526.66 628 527.32 628 528 628C528 629.32 528 630.64 528 632C528.66 632.33 529.32 632.66 530 633C529.67 633.66 529.34 634.32 529 635C529.66 635 530.32 635 531 635C532.313 638.735 533.472 642.507 534.563 646.312C534.811 647.175 535.06 648.037 535.316 648.926C537.489 658.694 537.149 668.64 537.145 678.586C537.148 680.366 537.152 682.145 537.155 683.925C537.164 688.739 537.167 693.553 537.167 698.367C537.168 701.378 537.17 704.389 537.173 707.4C537.182 717.915 537.186 728.429 537.185 738.943C537.185 748.73 537.195 758.517 537.211 768.303C537.224 776.721 537.23 785.138 537.229 793.555C537.229 798.576 537.231 803.597 537.242 808.618C537.252 813.339 537.252 818.06 537.245 822.781C537.244 824.51 537.246 826.238 537.252 827.966C537.285 838.106 536.826 847.188 533.438 856.875C533.064 857.954 533.064 857.954 532.684 859.055C532.345 860.017 532.345 860.017 532 861C531.67 861.99 531.34 862.98 531 864C530.34 864 529.68 864 529 864C529.33 864.99 529.66 865.98 530 867C529.34 867 528.68 867 528 867C528.33 867.99 528.66 868.98 529 870C528.01 870.33 527.02 870.66 526 871C525.911 871.878 525.822 872.756 525.731 873.66C524.907 877.423 523.635 879.389 521.313 882.437C520.588 883.39 519.864 884.343 519.117 885.324C514.491 891.171 509.707 897.161 504 902C503.34 902 502.68 902 502 902C501.67 902.66 501.34 903.32 501 904C497.423 907 497.423 907 495 907C494.67 907.66 494.34 908.32 494 909C488.824 913.187 484.604 915.449 478 916C477.67 916.66 477.34 917.32 477 918C476.34 917.67 475.68 917.34 475 917C475 917.66 475 918.32 475 919C472 920 472 920 469 919C469 919.66 469 920.32 469 921C464.161 922.021 459.355 923.009 454.438 923.562C451.175 923.621 451.175 923.621 450 925C447.761 925.099 445.518 925.126 443.276 925.127C442.565 925.128 441.854 925.13 441.121 925.132C438.72 925.136 436.319 925.132 433.917 925.129C432.203 925.131 430.488 925.132 428.774 925.135C424.102 925.139 419.43 925.137 414.759 925.134C409.875 925.132 404.992 925.134 400.109 925.136C391.901 925.137 383.694 925.135 375.486 925.13C365.998 925.125 356.51 925.127 347.023 925.132C338.883 925.137 330.744 925.137 322.605 925.135C317.741 925.133 312.877 925.133 308.013 925.136C303.436 925.139 298.858 925.137 294.281 925.131C292.601 925.13 290.922 925.13 289.243 925.132C286.948 925.135 284.653 925.132 282.359 925.127C281.075 925.126 279.791 925.126 278.469 925.126C275.22 925.008 272.187 924.617 269 924C269 923.34 269 922.68 269 922C268.113 922.185 267.226 922.371 266.313 922.562C262.015 923.13 259.064 922.355 255 921C255 920.34 255 919.68 255 919C254.01 919.33 253.02 919.66 252 920C242.285 916.805 231.288 911.288 224 904C222.906 903.215 221.801 902.445 220.688 901.687C216.051 898.403 212.49 895.146 210 890C209.299 889.299 208.598 888.597 207.875 887.875C207.256 887.256 206.638 886.637 206 886C206 885.34 206 884.68 206 884C205.34 883.67 204.68 883.34 204 883C202.906 881.602 201.871 880.157 200.875 878.687C200.336 877.907 199.797 877.128 199.242 876.324C198 874 198 874 198 870C197.34 870 196.68 870 196 870C195.52 868.729 195.041 867.458 194.563 866.187C194.296 865.48 194.029 864.772 193.754 864.043C193.138 862.373 192.563 860.688 192 859C192.33 858.34 192.66 857.68 193 857C192.34 857 191.68 857 191 857C190.635 855.419 190.283 853.835 189.938 852.25C189.642 850.927 189.642 850.927 189.34 849.578C189.002 847.013 189.188 845.429 190 843C189.34 843 188.68 843 188 843C187.006 838.863 186.872 834.988 186.866 830.74C186.864 830.019 186.862 829.298 186.859 828.556C186.853 826.146 186.854 823.737 186.855 821.327C186.852 819.597 186.848 817.867 186.845 816.137C186.836 811.441 186.833 806.744 186.833 802.048C186.832 799.112 186.83 796.176 186.827 793.24C186.818 782.991 186.814 772.743 186.815 762.494C186.815 752.951 186.805 743.407 186.789 733.864C186.776 725.663 186.771 717.463 186.771 709.262C186.771 704.367 186.769 699.473 186.758 694.578C186.748 689.972 186.748 685.366 186.756 680.759C186.757 679.073 186.754 677.387 186.748 675.701C186.721 667.563 186.757 659.896 189 652C189.186 651.13 189.371 650.26 189.563 649.363C191.014 642.559 193.236 636.369 196 630C196.33 629.01 196.66 628.02 197 627C197.66 627 198.32 627 199 627C199.103 626.092 199.206 625.185 199.313 624.25C200.007 620.969 200.701 619.391 203 617C203.66 617 204.32 617 205 617C205.124 616.402 205.248 615.804 205.375 615.187C206 613 206 613 208 610C208.66 610 209.32 610 210 610C210.268 609.36 210.536 608.721 210.813 608.062C212 606 212 606 215 605C215 604.34 215 603.68 215 603C215.66 603 216.32 603 217 603C217.248 602.195 217.495 601.391 217.75 600.562C219 598 219 598 221.125 597.187C221.744 597.125 222.363 597.064 223 597C223 596.34 223 595.68 223 595C223.99 595 224.98 595 226 595C226.278 594.134 226.278 594.134 226.563 593.25C228.635 590.006 231.661 588.688 235 587C235.763 586.587 236.526 586.175 237.313 585.75C239 585 239 585 241 585C241.66 584.34 242.32 583.68 243 583C244.875 582.113 244.875 582.113 247 581.312C248.052 580.904 248.052 580.904 249.125 580.488C251 580 251 580 253 581C253 580.34 253 579.68 253 579C256.813 577.808 260.401 576.882 264.375 576.437C267.804 576.402 267.804 576.402 269 575C277.428 573.679 285.902 573.859 294.409 573.87Z" fill="#FE5497"/>
<path d="M429 643C429 643.66 429 644.32 429 645C429.726 645.254 430.451 645.508 431.199 645.77C436.109 647.927 439.914 651.581 444 655C444.673 655.536 445.346 656.073 446.039 656.625C457.269 665.868 466.264 678.214 473 691C473.378 691.687 473.755 692.374 474.145 693.082C475 695 475 695 475 698C475.66 698 476.32 698 477 698C481.594 710.547 485.907 722.424 486.574 735.875C486.617 736.659 486.659 737.443 486.703 738.25C486.805 740.167 486.903 742.083 487 744C486.454 744.004 485.908 744.008 485.345 744.011C479.634 744.053 473.924 744.123 468.213 744.208C466.086 744.236 463.958 744.257 461.83 744.271C458.761 744.293 455.693 744.339 452.625 744.391C451.682 744.392 450.739 744.393 449.767 744.395C442.354 744.557 437.097 746.356 431.438 751.188C426.299 757.117 421.69 763.063 418 770C416.117 767.175 415.58 765.776 414.922 762.563C414.734 761.676 414.545 760.79 414.352 759.877C414.054 758.453 414.054 758.453 413.75 757C412.081 749.4 410.263 741.884 408 734.438C407.775 733.66 407.551 732.882 407.319 732.08C405.804 727.258 404.048 724.263 400 721C396.789 720.542 395.092 720.97 392 722C388.927 727.97 387.958 735.278 386.688 741.813C386.374 743.401 386.374 743.401 386.055 745.022C382.574 763.022 379.669 781.145 376.871 799.262C375.436 808.543 373.983 817.782 371.875 826.938C371.716 827.637 371.558 828.336 371.394 829.056C370.661 832.07 370.235 833.765 368 836C365.039 815.795 363.789 795.56 362.593 775.191C362.336 770.849 362.071 766.508 361.807 762.166C361.056 749.797 360.31 737.427 359.6 725.055C358.347 703.15 358.347 703.15 356.305 681.307C356.053 679.042 355.82 676.775 355.588 674.508C354.729 666.457 353.502 658.734 351 651C349.163 650.228 349.163 650.228 347 650C340.293 654.84 339.88 667.108 338.562 674.563C338.349 675.748 338.135 676.933 337.914 678.155C337.267 681.768 336.631 685.384 336 689C335.818 690.043 335.636 691.086 335.448 692.16C333.458 703.645 331.671 715.152 330 726.688C328.443 737.413 326.6 748.048 324.466 758.673C324.007 760.966 323.56 763.262 323.117 765.559C321.139 775.723 321.139 775.723 320 778C319.34 778 318.68 778 318 778C314.971 766.907 313.043 755.644 311.052 744.331C308.821 727.829 308.821 727.829 302 713C299.111 711.556 297.204 711.623 294 712C286.981 717.136 284.038 726.461 281.188 734.383C277.684 742.105 277.684 742.105 275 745C272.047 746.086 269.313 745.941 266.199 745.781C264.945 745.765 264.945 745.765 263.665 745.747C261.003 745.703 258.347 745.602 255.688 745.5C253.88 745.46 252.072 745.424 250.264 745.391C245.84 745.303 241.421 745.165 237 745C238.853 710.102 253.493 679.229 279.266 655.532C321.273 618.432 381.248 615.243 429 643Z" fill="#F1F0F1"/>
<path d="M347 669C347.33 669 347.66 669 348 669C350.026 681.859 350.762 694.728 351.473 707.715C351.601 709.984 351.731 712.252 351.86 714.521C352.199 720.451 352.53 726.38 352.86 732.311C353.39 741.824 353.929 751.337 354.47 760.85C354.657 764.158 354.84 767.466 355.023 770.774C355.138 772.808 355.252 774.841 355.367 776.875C355.417 777.786 355.466 778.696 355.517 779.635C355.812 784.798 356.331 789.873 357 795C357.089 797.029 357.178 799.059 357.24 801.089C357.539 810.227 358.567 819.204 359.875 828.25C360.036 829.404 360.198 830.558 360.364 831.747C361.247 837.592 362.179 842.771 365 848C366.925 849.149 366.925 849.149 369 849C372 848.341 372 848.341 373.027 846.461C378.47 833.988 380.765 820.665 382.875 807.312C383.127 805.755 383.38 804.197 383.634 802.64C384.161 799.402 384.684 796.165 385.205 792.926C386.379 785.63 387.591 778.341 388.805 771.051C389.174 768.828 389.541 766.604 389.908 764.38C391.069 757.353 392.271 750.334 393.551 743.328C393.781 742.064 394.01 740.8 394.247 739.497C394.952 736.222 395.872 733.151 397 730C403.759 735.868 404.292 748.507 406.018 756.877C407.657 764.437 409.821 772.044 415 778C417.754 778.203 417.754 778.203 421 777C424.451 773.533 427.057 769.394 429.789 765.355C437.377 754.208 437.377 754.208 444 752C445.792 751.906 447.588 751.869 449.383 751.867C450.461 751.865 451.538 751.863 452.649 751.861C454.37 751.868 454.37 751.868 456.125 751.875C457.871 751.878 457.871 751.878 459.652 751.881C468.797 751.926 477.884 752.289 487 753C487.718 761.453 486.609 769.025 484.75 777.25C484.545 778.172 484.341 779.094 484.13 780.043C482.703 786.058 480.639 791.424 478 797C477.279 798.766 476.567 800.535 475.875 802.312C474.714 805.293 473.47 808.158 472 811C471.34 811 470.68 811 470 811C469.926 811.525 469.853 812.049 469.777 812.59C468.674 816.01 466.654 818.686 464.562 821.562C464.115 822.18 463.668 822.798 463.207 823.434C455.937 833.308 447.772 841.59 438 849C437.223 849.593 436.445 850.186 435.644 850.797C423.314 859.802 410.714 866.062 396 870C394.931 870.307 393.863 870.614 392.762 870.93C383.615 873.529 375.069 874.186 365.59 874.185C363.468 874.187 361.346 874.206 359.225 874.225C348.684 874.268 337.955 873.999 328.121 869.828C325.483 868.798 322.795 868.118 320.062 867.375C303.708 862.385 289.962 852.506 277.375 841.188C276.865 840.731 276.356 840.275 275.831 839.805C273.242 837.411 271.307 835.299 270 832C269.34 832 268.68 832 268 832C266.341 830.12 264.819 828.247 263.312 826.25C262.865 825.661 262.418 825.072 261.958 824.465C251.686 810.69 244.882 795.533 240.537 778.982C240.036 777.134 239.451 775.309 238.859 773.488C237.177 766.896 237.853 759.747 238 753C239.125 752.985 240.25 752.971 241.409 752.956C245.593 752.898 249.777 752.82 253.961 752.738C255.769 752.704 257.578 752.676 259.387 752.654C261.992 752.62 264.595 752.568 267.199 752.512C268.407 752.502 268.407 752.502 269.64 752.492C274.234 752.373 277.301 751.994 281 749C283.992 745.742 285.856 742.537 287.578 738.48C288.016 737.459 288.455 736.437 288.906 735.385C289.571 733.802 289.571 733.802 290.25 732.188C290.709 731.113 291.168 730.039 291.641 728.932C292.767 726.291 293.887 723.647 295 721C295.99 721 296.98 721 298 721C301.816 731.541 303.781 742.327 305.437 753.375C307.937 771.44 307.937 771.44 315 788C317.738 790.195 317.738 790.195 320.437 790.125C324.421 788.376 325.49 784.866 327 781C328.061 777.182 328.825 773.329 329.562 769.438C329.773 768.376 329.983 767.314 330.2 766.219C330.618 764.107 331.032 761.994 331.44 759.88C331.916 757.434 332.407 754.994 332.914 752.555C335.207 741.458 336.821 730.279 338.446 719.069C339.891 709.134 341.415 699.243 343.344 689.391C344.17 685.123 344.878 680.841 345.57 676.551C345.996 674.022 346.484 671.512 347 669Z" fill="#F2F1F1"/>
<path d="M918 619C932.52 619 947.04 619 962 619C962.33 631.54 962.66 644.08 963 657C965.64 654.69 968.28 652.38 971 650C979.676 645.522 989.28 644.485 998.688 647.062C1005.7 649.785 1010.48 654.32 1013.88 661C1019.54 675.585 1018.27 691.949 1018.2 707.309C1018.19 709.731 1018.19 712.153 1018.19 714.576C1018.18 720.903 1018.16 727.231 1018.14 733.558C1018.12 740.034 1018.11 746.51 1018.1 752.986C1018.08 765.658 1018.04 778.329 1018 791C1003.48 791 988.96 791 974 791C973.98 787.755 973.96 784.509 973.94 781.165C973.873 770.448 973.795 759.732 973.712 749.015C973.663 742.516 973.616 736.018 973.578 729.52C973.541 723.25 973.495 716.98 973.442 710.71C973.423 708.317 973.408 705.923 973.397 703.53C973.38 700.18 973.351 696.831 973.319 693.482C973.317 692.49 973.315 691.498 973.312 690.476C973.424 683.179 973.424 683.179 970 677C968.334 676.959 966.666 676.957 965 677C963.268 680.013 962.745 682.194 962.722 685.657C962.71 686.588 962.699 687.519 962.688 688.478C962.686 689.493 962.683 690.507 962.681 691.552C962.666 693.162 962.666 693.162 962.651 694.805C962.62 698.354 962.603 701.904 962.586 705.453C962.567 707.914 962.548 710.374 962.527 712.835C962.476 719.312 962.436 725.789 962.399 732.266C962.359 738.876 962.308 745.485 962.258 752.094C962.161 765.062 962.078 778.031 962 791C947.48 791 932.96 791 918 791C918 734.24 918 677.48 918 619Z" fill="#FF5498"/>
<path d="M1173.37 656.934C1183.24 666.813 1183.42 679.201 1183.46 692.336C1183.45 695.96 1183.42 699.583 1183.39 703.207C1183.38 705.744 1183.38 708.282 1183.37 710.819C1183.36 716.783 1183.33 722.746 1183.29 728.71C1183.24 735.508 1183.22 742.306 1183.2 749.105C1183.16 763.07 1183.09 777.035 1183 791C1169.14 791 1155.28 791 1141 791C1140.5 788.525 1140.5 788.525 1140 786C1139.09 786.743 1138.18 787.485 1137.25 788.25C1128.2 794.619 1117.85 796.222 1107 795C1099.22 793.302 1094.36 789.581 1090 783C1085.45 774.39 1085.41 765.765 1085.53 756.284C1085.56 753.872 1085.55 751.463 1085.54 749.051C1085.56 730.429 1085.56 730.429 1092 723.438C1098.25 718.472 1106.09 715.951 1113.43 713.029C1117.62 711.35 1121.79 709.6 1125.94 707.813C1126.69 707.504 1127.44 707.195 1128.21 706.877C1128.91 706.574 1129.62 706.27 1130.34 705.957C1130.95 705.699 1131.56 705.441 1132.2 705.175C1134.82 703.467 1136.29 701.619 1138 699C1138.58 696.064 1138.58 696.064 1138.46 692.93C1138.46 691.215 1138.46 691.215 1138.45 689.465C1138.42 688.28 1138.4 687.096 1138.37 685.875C1138.37 684.683 1138.37 683.49 1138.37 682.262C1138.53 675.76 1138.53 675.76 1136 670C1133 669.583 1133 669.583 1130 670C1127.17 672.83 1127.65 675.619 1127.59 679.414C1127.57 680.061 1127.55 680.708 1127.53 681.374C1127.47 683.791 1127.42 686.208 1127.37 688.625C1127.25 694.029 1127.13 699.433 1127 705C1113.47 705 1099.94 705 1086 705C1085.42 668.733 1085.42 668.733 1095 658C1113.59 640.172 1153.98 641.141 1173.37 656.934ZM1133.56 729.125C1132.97 729.705 1132.37 730.285 1131.75 730.883C1126.33 737.425 1126.54 743.525 1126.62 751.688C1126.61 752.828 1126.6 753.968 1126.59 755.143C1126.59 756.234 1126.6 757.325 1126.6 758.449C1126.6 759.443 1126.61 760.436 1126.61 761.46C1126.8 764.027 1126.8 764.027 1128.34 765.824C1130.93 767.656 1132.92 767.385 1136 767C1137.74 765.772 1137.74 765.772 1139 764C1139.26 761.058 1139.35 758.333 1139.29 755.395C1139.29 754.555 1139.28 753.716 1139.28 752.852C1139.26 750.172 1139.23 747.492 1139.19 744.813C1139.17 742.995 1139.16 741.178 1139.15 739.361C1139.11 734.907 1139.06 730.454 1139 726C1136.19 726 1135.53 727.173 1133.56 729.125Z" fill="#FF5498"/>
<path d="M841 655C850.009 662.174 855.533 671.47 857.636 682.787C858.475 690.193 858.199 697.683 858.125 705.125C858.084 711.024 858.043 716.923 858 723C839.85 723 821.7 723 803 723C803.124 729.889 803.248 736.778 803.375 743.875C803.409 746.05 803.443 748.224 803.478 750.465C803.513 752.182 803.549 753.9 803.586 755.617C803.603 756.962 803.603 756.962 803.62 758.334C803.64 759.187 803.66 760.039 803.681 760.918C803.694 761.659 803.708 762.401 803.722 763.165C803.852 765.247 803.852 765.247 806 767C809 767.333 809 767.333 812 767C815.699 763.301 815.143 757.733 815.316 752.727C815.355 751.686 815.393 750.645 815.432 749.573C815.475 748.27 815.518 746.967 815.563 745.625C815.707 741.459 815.851 737.293 816 733C829.86 733 843.72 733 858 733C858.606 765.7 858.606 765.7 849 779C848.258 780.073 847.515 781.145 846.75 782.25C836.75 792.25 823.687 795.203 810 795.25C795.204 795.23 781.936 792.603 770.688 782.375C762.501 773.6 758.78 762.239 758.709 750.413C758.703 749.702 758.696 748.99 758.689 748.257C758.67 745.927 758.666 743.599 758.664 741.27C758.658 739.631 758.651 737.992 758.644 736.353C758.632 732.924 758.628 729.496 758.629 726.067C758.63 721.708 758.602 717.349 758.568 712.99C758.545 709.605 758.542 706.22 758.543 702.836C758.54 701.23 758.532 699.625 758.516 698.02C758.387 683.379 760.388 670.169 770.813 659.07C788.924 642.055 820.88 641.036 841 655ZM804.362 674.187C802.507 676.656 802.656 678.258 802.707 681.324C802.717 682.352 802.726 683.38 802.736 684.44C802.761 685.511 802.787 686.583 802.813 687.688C802.826 688.771 802.84 689.855 802.854 690.971C802.889 693.647 802.943 696.324 803 699C807.29 699 811.58 699 816 699C816.054 696.312 816.094 693.626 816.125 690.938C816.142 690.185 816.159 689.433 816.176 688.658C816.219 683.716 815.783 679.635 814 675C810.621 672.748 807.898 671.625 804.362 674.187Z" fill="#FF5498"/>
<path d="M679 655C680.093 655.701 681.186 656.402 682.313 657.125C693.008 668.567 692 680.947 692 696C678.47 696 664.94 696 651 696C650.67 690.39 650.34 684.78 650 679C649.34 678.01 648.68 677.02 648 676C644.416 675.75 644.416 675.75 641 676C638.991 680.143 638.598 683.415 639 688C641.012 693.227 643.397 695.4 648.125 698.312C648.732 698.69 649.339 699.068 649.964 699.456C654.794 702.409 659.785 705.027 664.813 707.625C675.903 713.367 687.284 720.534 691.492 732.945C694.715 745.985 695.525 763.97 689 776C682.251 787.089 673.315 790.977 661 794C644.737 796.98 624.407 797.055 609.875 788.25C602.549 782.657 598.782 775.973 597 767C596.665 762.28 596.715 757.603 596.813 752.875C596.905 746.502 596.905 746.502 597 740C610.2 740 623.4 740 637 740C637.25 750.75 637.25 750.75 637.298 754.12C637.433 759.753 637.433 759.753 639.852 764.707C642.029 766.277 642.029 766.277 645.125 765.937C648.292 765.233 648.292 765.233 650 762C650.357 758.969 650.357 758.969 650.313 755.625C650.329 754.503 650.346 753.382 650.363 752.227C649.867 747.822 648.669 745.486 645.344 742.525C640.503 738.714 635.32 735.962 629.813 733.25C616.633 726.504 604.619 719.059 599.125 704.625C595.939 692.486 596.583 676.738 602.254 665.519C608.387 655.543 616.475 650.153 627.707 647.316C645.287 643.829 663.737 645.08 679 655Z" fill="#FF5498"/>
<path d="M1255 628C1270.18 628 1285.36 628 1301 628C1301 635.26 1301 642.52 1301 650C1304.63 650 1308.26 650 1312 650C1312 657.92 1312 665.84 1312 674C1308.37 674 1304.74 674 1301 674C1301.33 704.36 1301.66 734.72 1302 766C1305.3 766.33 1308.6 766.66 1312 767C1312 774.92 1312 782.84 1312 791C1306.77 791.092 1301.54 791.172 1296.31 791.22C1294.54 791.24 1292.76 791.267 1290.99 791.302C1269.28 791.717 1269.28 791.717 1262.09 785.291C1254.42 777.248 1254.84 766.089 1254.89 755.625C1254.89 754.736 1254.89 753.847 1254.89 752.931C1254.89 750.026 1254.89 747.12 1254.9 744.215C1254.9 742.187 1254.91 740.16 1254.91 738.133C1254.91 732.821 1254.92 727.509 1254.93 722.198C1254.94 716.768 1254.95 711.338 1254.95 705.908C1254.96 695.272 1254.98 684.636 1255 674C1252.03 674 1249.06 674 1246 674C1246 666.08 1246 658.16 1246 650C1248.97 650 1251.94 650 1255 650C1255 642.74 1255 635.48 1255 628Z" fill="#FF5498"/>
<path d="M643 826C648.28 826 653.56 826 659 826C659.66 834.25 660.32 842.5 661 851C661.433 848.154 661.433 848.154 661.875 845.25C662.863 838.824 663.919 832.411 665 826C669.62 826 674.24 826 679 826C680.252 828.504 680.417 830.662 680.754 833.445C680.873 834.415 680.993 835.384 681.115 836.383C681.263 837.618 681.411 838.853 681.563 840.125C682.037 844.044 682.511 847.963 683 852C683.66 843.42 684.32 834.84 685 826C689.95 826 694.9 826 700 826C698.02 843.49 696.04 860.98 694 879C687.73 879 681.46 879 675 879C673.863 872.327 672.84 865.723 672 859C671.01 865.6 670.02 872.2 669 879C665.886 879.021 662.771 879.041 659.563 879.062C658.58 879.072 657.597 879.081 656.584 879.09C655.815 879.093 655.046 879.095 654.254 879.098C653.463 879.103 652.672 879.108 651.858 879.114C650 879 650 879 649 878C648.732 876.594 648.522 875.178 648.336 873.759C648.216 872.858 648.096 871.956 647.972 871.027C647.846 870.045 647.72 869.063 647.59 868.051C647.458 867.045 647.326 866.04 647.191 865.004C646.912 862.87 646.636 860.736 646.361 858.601C645.941 855.343 645.513 852.087 645.084 848.83C644.815 846.758 644.546 844.686 644.277 842.613C644.149 841.641 644.021 840.669 643.889 839.668C643.772 838.75 643.655 837.833 643.535 836.888C643.431 836.087 643.328 835.286 643.221 834.461C642.969 831.651 643 828.821 643 826Z" fill="#FF5498"/>
<path d="M829 815C834.61 815 840.22 815 846 815C846.33 819.29 846.66 823.58 847 828C848.65 827.01 850.3 826.02 852 825C855.734 824.6 858.244 824.708 861.75 826.062C865.283 829.105 866.751 832.765 867.259 837.326C867.346 839.992 867.338 842.642 867.293 845.309C867.289 846.275 867.284 847.242 867.28 848.238C867.263 851.305 867.226 854.371 867.188 857.438C867.172 859.525 867.159 861.613 867.146 863.701C867.114 868.801 867.062 873.9 867 879C861.39 879 855.78 879 850 879C849.67 865.47 849.34 851.94 849 838C848.34 838 847.68 838 847 838C846.67 851.53 846.34 865.06 846 879C840.39 879 834.78 879 829 879C829 857.88 829 836.76 829 815Z" fill="#FF5497"/>
<path d="M616.563 813.563C617.292 813.555 618.021 813.548 618.772 813.541C623.552 813.597 626.848 814.426 631 817C634.85 820.951 635.238 824.055 635.25 829.375C635.168 831.231 635.085 833.087 635 835C629.72 835 624.44 835 619 835C618.67 832.03 618.34 829.06 618 826C617.01 825.67 616.02 825.34 615 825C614.59 830.053 614.59 830.053 616.676 834.527C619.107 837.113 621.363 838.627 624.438 840.375C630.282 843.949 633.786 847.358 636 854C636.149 856.619 636.231 859.193 636.25 861.812C636.271 862.512 636.291 863.211 636.313 863.932C636.348 868.729 635.503 871.92 633 876C628.511 880.489 622.627 881.128 616.563 881.312C610.21 881.173 605.216 880.215 600.563 875.562C596.732 869.28 597.934 862.137 598 855C603.28 855 608.56 855 614 855C614.195 858.06 614.391 861.12 614.586 864.18C614.733 867.13 614.733 867.13 617 869C618.56 867.44 618.282 865.911 618.375 863.75C618.306 860.365 618.195 859.276 616.188 856.438C614.333 854.881 612.362 853.566 610.359 852.203C599.478 844.697 599.478 844.697 598 838C597.262 830.918 596.991 824.079 601 818C606.317 814.285 610.15 813.386 616.563 813.563Z" fill="#FF5498"/>
<path d="M1057 813.625C1058.03 813.608 1058.03 813.608 1059.08 813.59C1065.13 813.625 1069 815.086 1073.36 819.262C1076.33 824.226 1075.23 829.349 1075 835C1070.05 835 1065.1 835 1060 835C1059.51 830.05 1059.51 830.05 1059 825C1058.01 825.33 1057.02 825.66 1056 826C1055.28 830.072 1055.28 830.072 1056 834C1058.25 836.129 1060.62 837.639 1063.25 839.273C1065.87 840.919 1068.16 842.667 1070.5 844.688C1071.13 845.228 1071.76 845.768 1072.41 846.324C1077.29 851.464 1076.91 858.26 1077 865C1076.66 870.17 1075.85 873.068 1072.31 876.938C1065.22 881.353 1057.58 882.177 1049.46 880.465C1045.99 879.43 1043.59 878.588 1041 876C1038.8 871.6 1038.88 867.612 1038.94 862.812C1038.94 862.063 1038.95 861.313 1038.95 860.541C1038.96 858.694 1038.98 856.847 1039 855C1043.95 854.67 1048.9 854.34 1054 854C1052.43 852.948 1050.87 851.896 1049.25 850.812C1044.85 847.739 1041.43 844.868 1039 840C1038.82 837.235 1038.72 834.517 1038.69 831.75C1038.66 830.998 1038.63 830.247 1038.6 829.473C1038.54 824.19 1039.35 821.087 1043 817C1047.53 813.947 1051.66 813.535 1057 813.625ZM1055 855C1055 859.62 1055 864.24 1055 869C1055.99 869.33 1056.98 869.66 1058 870C1060.5 866.25 1060.54 864.441 1060 860C1057.65 857.06 1057.65 857.06 1055 855Z" fill="#FF5498"/>
<path d="M1244 815C1249.28 815 1254.56 815 1260 815C1260.33 819.29 1260.66 823.58 1261 828C1262.65 827.01 1264.3 826.02 1266 825C1270.17 824.123 1273.2 824.532 1276.88 826.688C1281.73 831.973 1281.27 837.526 1281.2 844.332C1281.19 845.324 1281.19 846.316 1281.19 847.337C1281.18 850.496 1281.15 853.654 1281.12 856.812C1281.11 858.958 1281.11 861.103 1281.1 863.248C1281.08 868.499 1281.04 873.749 1281 879C1275.39 879 1269.78 879 1264 879C1264 865.14 1264 851.28 1264 837C1263.01 837 1262.02 837 1261 837C1260.67 850.86 1260.34 864.72 1260 879C1254.72 879 1249.44 879 1244 879C1244 857.88 1244 836.76 1244 815Z" fill="#FF5497"/>
<path d="M1117 828C1120.75 831.847 1122.13 834.967 1122.11 840.288C1122.11 841.149 1122.11 842.009 1122.11 842.896C1122.11 843.821 1122.1 844.746 1122.1 845.699C1122.1 846.65 1122.09 847.6 1122.09 848.579C1122.09 851.615 1122.08 854.651 1122.06 857.688C1122.06 859.746 1122.05 861.804 1122.05 863.862C1122.04 868.908 1122.02 873.954 1122 879C1116 879 1110 879 1104 879C1103.32 879.351 1102.64 879.701 1101.94 880.063C1097.79 881.386 1094.2 881.098 1090 880C1087.01 877.754 1086.18 876.552 1085 873C1084.85 870.545 1084.78 868.085 1084.75 865.625C1084.71 863.665 1084.71 863.665 1084.67 861.664C1085.02 857.757 1085.5 855.989 1088 853C1091.54 850.926 1095.19 849.568 1099 848C1092.07 847.505 1092.07 847.505 1085 847C1084.69 839.532 1084.81 834.399 1089.31 828.188C1097.17 822.659 1108.84 823.775 1117 828ZM1102 834C1100.69 835.086 1100.69 835.086 1100.9 837.723C1100.91 838.825 1100.93 839.927 1100.94 841.063C1100.95 842.167 1100.96 843.272 1100.96 844.41C1100.98 845.265 1100.99 846.12 1101 847C1102.32 846.34 1103.64 845.68 1105 845C1105 841.7 1105 838.4 1105 835C1104.01 834.67 1103.02 834.34 1102 834ZM1102.45 857.176C1100.51 859.616 1100.69 861.113 1100.81 864.188C1100.84 865.089 1100.87 865.99 1100.89 866.918C1100.93 867.605 1100.96 868.292 1101 869C1102.32 869 1103.64 869 1105 869C1105 864.71 1105 860.42 1105 856C1103.81 855.9 1103.81 855.9 1102.45 857.176Z" fill="#FF5498"/>
<path d="M739 828C742.751 831.847 744.129 834.967 744.114 840.288C744.113 841.149 744.113 842.009 744.113 842.896C744.108 843.821 744.103 844.746 744.098 845.699C744.096 846.65 744.095 847.6 744.093 848.579C744.088 851.615 744.075 854.651 744.062 857.688C744.057 859.746 744.053 861.804 744.049 863.862C744.038 868.908 744.021 873.954 744 879C738 879 732 879 726 879C725.319 879.351 724.639 879.701 723.938 880.063C719.79 881.386 716.195 881.098 712 880C709.005 877.754 708.184 876.552 707 873C706.853 870.545 706.779 868.085 706.75 865.625C706.711 863.665 706.711 863.665 706.672 861.664C707.022 857.757 707.5 855.989 710 853C713.538 850.926 717.192 849.568 721 848C714.07 847.505 714.07 847.505 707 847C706.693 839.532 706.815 834.399 711.312 828.188C719.17 822.659 730.84 823.775 739 828ZM724 834C722.687 835.086 722.687 835.086 722.902 837.723C722.914 838.825 722.926 839.927 722.938 841.063C722.947 842.167 722.956 843.272 722.965 844.41C722.976 845.265 722.988 846.12 723 847C724.32 846.34 725.64 845.68 727 845C727 841.7 727 838.4 727 835C726.01 834.67 725.02 834.34 724 834ZM724.449 857.176C722.511 859.616 722.693 861.113 722.812 864.188C722.84 865.089 722.867 865.99 722.895 866.918C722.929 867.605 722.964 868.292 723 869C724.32 869 725.64 869 727 869C727 864.71 727 860.42 727 856C725.808 855.9 725.808 855.9 724.449 857.176Z" fill="#FF5498"/>
<path d="M1163 828C1165.86 830.345 1166.83 831.482 1168 835C1168.09 836.458 1168.12 837.919 1168.11 839.38C1168.11 840.26 1168.11 841.141 1168.11 842.048C1168.11 842.995 1168.1 843.942 1168.1 844.918C1168.1 845.89 1168.09 846.863 1168.09 847.865C1168.09 850.972 1168.08 854.08 1168.06 857.187C1168.06 859.294 1168.05 861.4 1168.05 863.506C1168.04 868.671 1168.02 873.835 1168 879C1166.14 878.965 1166.14 878.965 1164.24 878.93C1162.6 878.911 1160.95 878.893 1159.31 878.875C1158.09 878.85 1158.09 878.85 1156.84 878.824C1152.38 878.788 1149.08 879.017 1145 881C1141.87 881.206 1139.02 880.874 1136 880C1132.66 876.99 1131.39 874.436 1131 870C1130.7 864.296 1130.52 859.281 1133 854C1135.64 852.207 1135.64 852.207 1138.81 850.812C1144.66 848.335 1144.66 848.335 1150 845C1150.6 842.496 1150.6 842.496 1150.31 839.812C1150.27 838.911 1150.22 838.01 1150.18 837.082C1150.12 836.395 1150.06 835.708 1150 835C1149.34 835 1148.68 835 1148 835C1147.67 838.96 1147.34 842.92 1147 847C1141.72 847 1136.44 847 1131 847C1131.68 833.502 1131.68 833.502 1135 829C1143.33 823.022 1154.08 823.618 1163 828ZM1148.44 857.437C1146.32 861.212 1146.76 864.764 1147 869C1148.32 869 1149.64 869 1151 869C1151 864.71 1151 860.42 1151 856C1149.77 855.887 1149.77 855.887 1148.44 857.437Z" fill="#FF5498"/>
<path d="M997 828C999.858 830.345 1000.83 831.482 1002 835C1002.09 836.458 1002.12 837.919 1002.11 839.38C1002.11 840.26 1002.11 841.141 1002.11 842.048C1002.11 842.995 1002.1 843.942 1002.1 844.918C1002.1 845.89 1002.09 846.863 1002.09 847.865C1002.09 850.972 1002.08 854.08 1002.06 857.187C1002.06 859.294 1002.05 861.4 1002.05 863.506C1002.04 868.671 1002.02 873.835 1002 879C1000.14 878.965 1000.14 878.965 998.238 878.93C996.596 878.911 994.954 878.893 993.313 878.875C992.088 878.85 992.088 878.85 990.838 878.824C986.384 878.788 983.084 879.017 979 881C975.866 881.206 973.018 880.874 970 880C966.656 876.99 965.394 874.436 965 870C964.703 864.296 964.524 859.281 967 854C969.645 852.207 969.645 852.207 972.813 850.812C978.656 848.335 978.656 848.335 984 845C984.603 842.496 984.603 842.496 984.313 839.812C984.267 838.911 984.222 838.01 984.176 837.082C984.118 836.395 984.06 835.708 984 835C983.34 835 982.68 835 982 835C981.67 838.96 981.34 842.92 981 847C975.72 847 970.44 847 965 847C965.682 833.502 965.682 833.502 969 829C977.326 823.022 988.081 823.618 997 828ZM982.438 857.437C980.32 861.212 980.756 864.764 981 869C982.32 869 983.64 869 985 869C985 864.71 985 860.42 985 856C983.769 855.887 983.769 855.887 982.438 857.437Z" fill="#FF5498"/>
<path d="M909 828C913.661 833.236 913.535 837.781 913.391 844.43C913.385 845.42 913.379 846.41 913.374 847.431C913.351 850.579 913.301 853.727 913.25 856.875C913.23 859.015 913.212 861.156 913.195 863.297C913.151 868.531 913.085 873.766 913 879C911.246 878.965 911.246 878.965 909.457 878.93C907.909 878.911 906.361 878.893 904.813 878.875C903.659 878.85 903.659 878.85 902.483 878.824C898.128 878.787 895.01 879.128 891 881C886.019 881.445 882.955 881.164 879 878C876.46 873.771 876.562 869.876 876.5 865.062C876.459 864.264 876.418 863.465 876.375 862.642C876.315 858.141 876.493 856.556 879.633 853.109C882.835 851.103 885.858 849.555 889.375 848.187C890.435 847.768 891.494 847.349 892.586 846.918C893.383 846.615 894.179 846.312 895 846C895 842.37 895 838.74 895 835C894.34 834.67 893.68 834.34 893 834C892.67 838.29 892.34 842.58 892 847C887.05 847 882.1 847 877 847C876.517 835.167 876.517 835.167 878.5 830.375C886.51 822.765 899.632 822.981 909 828ZM895 856C891.945 860.033 891.623 863.01 892 868C892.33 868.66 892.66 869.32 893 870C893.99 869.67 894.98 869.34 896 869C896 864.71 896 860.42 896 856C895.67 856 895.34 856 895 856Z" fill="#FF5498"/>
<path d="M921 826C926.28 826 931.56 826 937 826C938.485 838.375 938.485 838.375 940 851C941.709 849.291 941.351 846.992 941.535 844.652C941.622 843.573 941.709 842.493 941.799 841.381C941.886 840.245 941.973 839.108 942.062 837.938C942.153 836.797 942.244 835.657 942.338 834.482C942.563 831.655 942.782 828.828 943 826C947.95 826 952.9 826 958 826C957.326 835.32 956.229 844.539 954.953 853.792C954.624 856.193 954.308 858.595 953.992 860.998C951.444 879.906 951.444 879.906 946.988 885.547C942.436 887.761 938.172 887.424 933.188 887.25C931.719 887.223 931.719 887.223 930.221 887.195C927.813 887.148 925.407 887.083 923 887C923 884.36 923 881.72 923 879C924.98 878.34 926.96 877.68 929 877C927.96 869.869 926.806 862.772 925.492 855.688C925.361 854.978 925.229 854.269 925.094 853.538C924.55 850.612 924.004 847.687 923.454 844.762C923.046 842.592 922.644 840.421 922.242 838.25C922.004 836.976 921.765 835.703 921.519 834.391C921 831 921 831 921 826Z" fill="#FF5497"/>
<path d="M784 828C786.5 830 786.5 830 788 833C788.316 836.735 788.181 840.237 788 844C783.05 844 778.1 844 773 844C772.67 841.36 772.34 838.72 772 836C771.01 836.495 771.01 836.495 770 837C769.342 840.029 769.342 840.029 769 843C770.081 843.408 770.081 843.408 771.184 843.824C777.655 846.526 784.215 849.911 788 856C789.889 861.666 789.725 867.786 787.875 873.437C785.153 877.158 782.126 879.291 777.75 880.75C770.64 881.396 763.275 882.014 757 878C754.159 875.189 753.079 873.677 752.609 869.668C752.74 866.445 752.87 863.223 753 860C759.435 859.505 759.435 859.505 766 859C764.577 858.092 763.154 857.185 761.688 856.25C757.282 853.44 754.673 851.018 753 846C752.465 840.025 752.487 835.087 756 830C763.654 822.739 774.985 823.413 784 828ZM768 860C767.938 861.279 767.876 862.557 767.812 863.875C767.778 864.594 767.743 865.314 767.707 866.055C767.804 866.697 767.9 867.339 768 868C769.485 868.99 769.485 868.99 771 870C771.66 869.34 772.32 868.68 773 868C772.993 864.96 772.993 864.96 772 862C770.048 860.564 770.048 860.564 768 860Z" fill="#FF5498"/>
<path d="M1200 756C1211.22 756 1222.44 756 1234 756C1234 767.55 1234 779.1 1234 791C1222.78 791 1211.56 791 1200 791C1200 779.45 1200 767.9 1200 756Z" fill="#FF5497"/>
<path d="M1035 756C1046.22 756 1057.44 756 1069 756C1069 767.55 1069 779.1 1069 791C1057.78 791 1046.56 791 1035 791C1035 779.45 1035 767.9 1035 756Z" fill="#FF5497"/>
<path d="M866 756C877.22 756 888.44 756 900 756C900 767.55 900 779.1 900 791C888.78 791 877.56 791 866 791C866 779.45 866 767.9 866 756Z" fill="#FF5497"/>
<path d="M708 756C719.22 756 730.44 756 742 756C742 767.55 742 779.1 742 791C730.78 791 719.56 791 708 791C708 779.45 708 767.9 708 756Z" fill="#FF5497"/>
<path d="M803.816 817.902C805.398 817.909 806.981 817.921 808.562 817.938C809.369 817.942 810.175 817.947 811.006 817.951C813.004 817.963 815.002 817.981 817 818C817 820.64 817 823.28 817 826C818.32 826 819.64 826 821 826C821 829.3 821 832.6 821 836C819.68 836 818.36 836 817 836C817 847.22 817 858.44 817 870C818.32 870 819.64 870 821 870C821 872.97 821 875.94 821 879C818.249 879.108 815.502 879.187 812.75 879.25C811.584 879.3 811.584 879.3 810.395 879.352C806.758 879.414 804.638 879.405 801.516 877.422C798.363 872.384 798.879 866.096 798.902 860.316C798.904 859.266 798.904 859.266 798.907 858.194C798.912 855.984 798.925 853.773 798.938 851.562C798.943 850.053 798.947 848.543 798.951 847.033C798.962 843.355 798.979 839.678 799 836C798.01 836 797.02 836 796 836C796 832.7 796 829.4 796 826C796.99 826 797.98 826 799 826C798.979 824.866 798.959 823.731 798.938 822.562C799.017 818.025 799.017 818.025 803.816 817.902Z" fill="#FF5497"/>
<path d="M1214 818C1219.61 818 1225.22 818 1231 818C1231 820.64 1231 823.28 1231 826C1232.32 826 1233.64 826 1235 826C1235 829.3 1235 832.6 1235 836C1233.68 836 1232.36 836 1231 836C1231.33 846.89 1231.66 857.78 1232 869C1233.49 869.495 1233.49 869.495 1235 870C1235 872.97 1235 875.94 1235 879C1232.44 879.136 1229.88 879.234 1227.31 879.312C1226.59 879.354 1225.87 879.396 1225.13 879.439C1224.07 879.464 1224.07 879.464 1222.99 879.488C1222.34 879.514 1221.7 879.541 1221.04 879.568C1217.56 878.599 1216.15 876.843 1214 874C1213.34 871.05 1213.42 868.21 1213.51 865.199C1213.52 864.363 1213.53 863.526 1213.53 862.665C1213.56 860.005 1213.62 857.347 1213.69 854.688C1213.71 852.88 1213.74 851.072 1213.76 849.264C1213.81 844.842 1213.9 840.421 1214 836C1212.68 836 1211.36 836 1210 836C1210 832.7 1210 829.4 1210 826C1211.32 826 1212.64 826 1214 826C1214 823.36 1214 820.72 1214 818Z" fill="#FF5498"/>
<path d="M1204 825C1204 831.6 1204 838.2 1204 845C1201.69 845.66 1199.38 846.32 1197 847C1195.09 848.912 1195.76 852.336 1195.68 854.879C1195.66 855.566 1195.64 856.252 1195.62 856.96C1195.56 859.161 1195.5 861.361 1195.44 863.562C1195.39 865.051 1195.35 866.54 1195.31 868.029C1195.2 871.686 1195.1 875.343 1195 879C1189.39 879 1183.78 879 1178 879C1178 861.51 1178 844.02 1178 826C1183.28 826 1188.56 826 1194 826C1194.33 826.99 1194.66 827.98 1195 829C1195.93 828.34 1196.86 827.68 1197.81 827C1201 825 1201 825 1204 825Z" fill="#FF5497"/>
<path d="M1291 826C1296.61 826 1302.22 826 1308 826C1308 843.49 1308 860.98 1308 879C1302.39 879 1296.78 879 1291 879C1291 861.51 1291 844.02 1291 826Z" fill="#FF5497"/>
<path d="M417 664C420.63 664 424.26 664 428 664C428 666.97 428 669.94 428 673C429.299 672.979 430.599 672.959 431.938 672.938C433.292 672.916 434.648 672.929 436 673C437 674 437 674 437.098 676.285C437.086 677.202 437.074 678.118 437.062 679.062C437.053 679.982 437.044 680.901 437.035 681.848C437.024 682.558 437.012 683.268 437 684C434.03 684 431.06 684 428 684C428.021 685.464 428.041 686.929 428.062 688.438C428.084 689.958 428.072 691.481 428 693C427 694 427 694 424.969 694.133C424.154 694.13 423.339 694.128 422.5 694.125C421.685 694.128 420.871 694.13 420.031 694.133C418 694 418 694 417 693C416.928 691.481 416.916 689.958 416.938 688.438C416.947 687.611 416.956 686.785 416.965 685.934C416.976 685.296 416.988 684.657 417 684C416.362 684.012 415.724 684.023 415.066 684.035C413.827 684.049 413.827 684.049 412.562 684.062C411.327 684.08 411.327 684.08 410.066 684.098C408 684 408 684 407 683C406.902 681.503 406.87 680.001 406.875 678.5C406.872 677.685 406.87 676.871 406.867 676.031C407 674 407 674 408 673C411.003 672.858 413.992 672.958 417 673C417 670.03 417 667.06 417 664Z" fill="#FE5699"/>
<path d="M1291 815C1296.61 815 1302.22 815 1308 815C1308 817.97 1308 820.94 1308 824C1302.39 824 1296.78 824 1291 824C1291 821.03 1291 818.06 1291 815Z" fill="#FF5498"/>
<path d="M266 923C268 924 268 924 268 924L266 923Z" fill="#FF0000"/>
</svg>
